<?xml version="1.0" encoding="UTF-8"?>
<svg version="1.1" xmlns="http://www.w3.org/2000/svg" width="360" height="381">
<path d="M0 0 C1.59134766 1.02480469 1.59134766 1.02480469 3.21484375 2.0703125 C16.26903891 10.54793989 22.72276086 18.79550108 26 34 C26.25 37.36328125 26.25 37.36328125 26 40 C25.34 40.66 24.68 41.32 24 42 C19.40695105 41.90431148 16.53637683 40.82447859 12.5703125 38.5546875 C6.49947136 35.45294026 0.59624803 34.80100927 -6.125 34.1875 C-7.27226562 34.06697266 -8.41953125 33.94644531 -9.6015625 33.82226562 C-12.39976351 33.53078635 -15.19846761 33.25710063 -18 33 C-17.31945557 33.4026709 -16.63891113 33.8053418 -15.93774414 34.22021484 C-15.04176514 34.75340332 -14.14578613 35.2865918 -13.22265625 35.8359375 C-12.33586182 36.3623584 -11.44906738 36.8887793 -10.53540039 37.43115234 C-1.11725151 43.25888703 7.65923281 52.846651 10.6484375 63.6875 C11.32221743 68.11947465 11.22539403 72.53385907 11 77 C9.3125 77.75 9.3125 77.75 7 78 C5.32950205 76.67146993 3.66376418 75.33695336 2 74 C-1.08517639 72.56664132 -4.27027304 71.49816226 -7.5 70.4375 C-8.87430176 69.98298462 -8.87430176 69.98298462 -10.27636719 69.51928711 C-23.91640139 65.22335066 -42.61533386 60.16527686 -56 67 C-55.88406494 67.82089111 -55.76812988 68.64178223 -55.64868164 69.48754883 C-55.21230124 72.58670016 -54.77835115 75.68618022 -54.34594727 78.78588867 C-54.06904305 80.76571806 -53.78943694 82.74516897 -53.50976562 84.72460938 C-52.57670475 91.42568293 -51.74730867 98.07916891 -51.34155273 104.8347168 C-51.10902317 107.2896023 -51.10902317 107.2896023 -49 110 C-48.875 112.56640625 -48.875 112.56640625 -49 115.5625 C-49.10673647 122.35258162 -48.77041519 128.86772697 -45.375 134.875 C-42.51035074 141.3855665 -43.22110865 148.70210631 -45.5625 155.3125 C-49.77390424 164.38655655 -57.08640229 168.50639687 -65.59765625 173.10546875 C-68.86012693 174.9221143 -71.91812485 176.89468611 -75 179 C-89.88053121 188.96282141 -105.60214934 191.47201554 -123 194 C-120.111809 195.8248992 -117.21324816 197.63263974 -114.3125 199.4375 C-113.08756836 200.2119043 -113.08756836 200.2119043 -111.83789062 201.00195312 C-111.04189453 201.49501953 -110.24589844 201.98808594 -109.42578125 202.49609375 C-108.69786377 202.95169678 -107.96994629 203.4072998 -107.2199707 203.87670898 C-104.81356387 205.09433549 -102.65509133 205.58979757 -100 206 C-99.9175 207.11375 -99.835 208.2275 -99.75 209.375 C-99.41900719 213.01463632 -99.41900719 213.01463632 -97.125 214.375 C-96.42375 214.58125 -95.7225 214.7875 -95 215 C-94.01 215.33 -93.02 215.66 -92 216 C-92.33 218.97 -92.66 221.94 -93 225 C-83.22086681 223.94378077 -74.93284093 220.88066041 -66 217 C-66.03480469 215.78763672 -66.03480469 215.78763672 -66.0703125 214.55078125 C-66.08835937 213.48214844 -66.10640625 212.41351563 -66.125 211.3125 C-66.14820313 210.25675781 -66.17140625 209.20101562 -66.1953125 208.11328125 C-65.93688688 203.99397679 -64.72099976 201.15986918 -62.5625 197.6875 C-59.45476218 195.64094095 -58.09392758 195.89849138 -54.4375 196.0625 C-51.55578673 196.21611031 -51.55578673 196.21611031 -49 196 C-47.17274994 193.87391821 -47.17274994 193.87391821 -46 191 C-41.58807155 186.9989385 -36.96531844 183.86131917 -31.09375 182.5859375 C-26.39882765 181.55235385 -23.68176584 180.26099261 -20 177 C-13.7011886 174.9003962 -5.67754343 174.78939891 0.4375 177.5625 C8.29328269 182.32558509 11.70061048 189.31740938 14 198 C15.63600096 206.55066127 15.79956646 215.45782414 11 223 C8.6875 225.5625 8.6875 225.5625 6 228 C5.0925 228.845625 4.185 229.69125 3.25 230.5625 C-5.27238729 237.42356116 -16.27891109 239.23824642 -27 239 C-27.0825 239.763125 -27.165 240.52625 -27.25 241.3125 C-28 244 -28 244 -29.5625 245.8125 C-33.65466838 247.80612049 -37.72785213 247.69094555 -42.00390625 246.390625 C-44.792705 245.24948814 -46.86036843 244.13963157 -49 242 C-52.46679277 242.39275212 -55.27499047 244.1199119 -58.3125 245.75 C-71.36308699 252.31474509 -83.60797363 254.89545731 -98 256 C-97.98839844 256.99902344 -97.97679687 257.99804688 -97.96484375 259.02734375 C-97.95582031 260.31769531 -97.94679687 261.60804688 -97.9375 262.9375 C-97.92589844 264.22527344 -97.91429687 265.51304687 -97.90234375 266.83984375 C-98 270 -98 270 -99 271 C-98.16339844 271.01417969 -97.32679688 271.02835937 -96.46484375 271.04296875 C-86.92160308 271.43399854 -78.90574819 273.52028594 -70 277 C-69.06244873 277.35868164 -69.06244873 277.35868164 -68.10595703 277.72460938 C-61.50033586 280.27985614 -55.49486771 282.90871271 -50.0078125 287.421875 C-46.67431097 290.04198126 -43.0281868 292.17170485 -39.41796875 294.38671875 C-37.32122021 295.78568022 -35.6877529 297.14403252 -34 299 C-33.58492188 298.44054687 -33.16984375 297.88109375 -32.7421875 297.3046875 C-28.48194574 291.76102563 -23.9141534 286.59243626 -19.0625 281.5625 C-18.50224121 280.95970215 -17.94198242 280.3569043 -17.36474609 279.73583984 C-8.81418306 271.0481151 4.05852085 270.156011 15.75 269.6875 C16.8225 269.790625 17.895 269.89375 19 270 C21.90563433 274.35845149 21.34211975 278.30693555 21.3125 283.4375 C21.30686035 284.43434814 21.3012207 285.43119629 21.29541016 286.45825195 C21.11934131 297.15051206 19.24925211 305.37597647 13.8671875 314.640625 C9.48094377 322.53219322 5.79813294 330.81335875 2 339 C1.64164062 339.7719873 1.28328125 340.54397461 0.9140625 341.33935547 C-2.08903692 347.85916578 -4.93322959 354.12683075 -6.4375 361.1875 C-7.39555497 365.09025152 -8.41596927 366.89256489 -11.75 369.1875 C-15.67565637 371.13600097 -18.61189669 371.86194886 -23 371 C-28.96995713 367.67084152 -33.91294393 362.46280568 -38.8984375 357.85546875 C-42.00497214 355.11271047 -44.12774285 354.84046873 -48.20556641 354.4543457 C-55.8098509 353.71682703 -62.12281649 352.15766253 -69.1328125 348.92578125 C-72.56234665 347.81842485 -74.52707368 348.16074811 -78 349 C-87.11604543 350.96109885 -96.07744436 351.61023177 -105.37597656 351.91210938 C-107.12570497 351.97071583 -108.87511557 352.03973357 -110.62402344 352.11914062 C-124.88113452 352.7392435 -137.74128364 350.9126104 -151.57836914 347.45898438 C-154.14779995 346.9719867 -156.39198382 346.79234235 -159 347 C-159.7425 347.61875 -160.485 348.2375 -161.25 348.875 C-164.97647938 351.75455224 -168.41698225 352.27796569 -173 353 C-174.299375 353.20625 -175.59875 353.4125 -176.9375 353.625 C-198.73625568 355.64409572 -221.36089813 353.3110456 -242 346 C-242.72106934 345.75314453 -243.44213867 345.50628906 -244.18505859 345.25195312 C-246.37984331 344.49748088 -248.56624703 343.72329082 -250.75 342.9375 C-251.73432007 342.58788208 -251.73432007 342.58788208 -252.73852539 342.23120117 C-256.79987571 340.7032261 -259.64157122 338.68674302 -263 336 C-265.46057349 335.13887506 -265.46057349 335.13887506 -268.0625 334.8125 C-269.00867188 334.66683594 -269.95484375 334.52117187 -270.9296875 334.37109375 C-275.942959 333.76516399 -280.96177378 333.33412321 -286 333 C-286.20625 333.825 -286.4125 334.65 -286.625 335.5 C-288.39468269 340.00464684 -290.99115103 343.25340441 -294 347 C-294.45375 347.64710938 -294.9075 348.29421875 -295.375 348.9609375 C-299.32371469 354.27824081 -303.52485698 355.99194828 -310 357 C-317.04835774 357.63749478 -322.79625346 357.54499802 -329 354 C-329.8765625 353.50113281 -330.753125 353.00226563 -331.65625 352.48828125 C-334.6764261 349.28186096 -334.6182147 347.37671345 -334.64428711 343.09545898 C-334.61729736 342.21833252 -334.59030762 341.34120605 -334.5625 340.4375 C-334.53651733 339.08603882 -334.53651733 339.08603882 -334.51000977 337.70727539 C-334.08577294 325.73688817 -329.53667603 317.80501404 -323 308 C-318.73984246 301.51126293 -316.401409 294.67261651 -314.14233398 287.29467773 C-311.76984758 279.69443093 -311.76984758 279.69443093 -309 277 C-306.11011199 275.76976655 -303.10309507 275.41506367 -300 275 C-298.90945313 274.83757812 -298.90945313 274.83757812 -297.796875 274.671875 C-289.67361783 274.02902731 -283.5097522 278.6601652 -277 283 C-274.82494253 283.4239284 -272.63415336 283.77043101 -270.4375 284.0625 C-264.18931298 284.90534351 -264.18931298 284.90534351 -262 286 C-262 285.34 -262 284.68 -262 284 C-253.23739998 284.35765714 -245.34599058 286.38045551 -237 289 C-236.34 286.69 -235.68 284.38 -235 282 C-239.77760994 279.82332829 -244.30496654 278.3320266 -249.4375 277.125 C-255.41301672 275.64606515 -260.02826263 273.65270501 -265 270 C-265 270.66 -265 271.32 -265 272 C-274.56513131 275.27471614 -283.57737817 276.1006895 -293.0859375 272.0703125 C-298.70000305 268.9310187 -303.02613912 265.11243235 -305.42651367 259.03857422 C-306.52657233 255.12819116 -306.52891074 251.22625413 -306.5 247.1875 C-306.49645508 246.3018335 -306.49291016 245.41616699 -306.48925781 244.50366211 C-306.31575409 237.67478178 -305.09157464 232.5902328 -301 227 C-300.13375 225.6078125 -300.13375 225.6078125 -299.25 224.1875 C-292.47283491 217.5985895 -285.30091902 216.30498034 -276.16015625 215.5546875 C-275.11730469 215.37164062 -274.07445312 215.18859375 -273 215 C-272.34 214.01 -271.68 213.02 -271 212 C-264.85054009 210.97509001 -259.28419941 211.57241119 -254 215 C-253.73823975 214.41661865 -253.47647949 213.8332373 -253.20678711 213.23217773 C-251.0498174 209.24246015 -247.72516209 206.271973 -244.5625 203.0625 C-243.90056641 202.35931641 -243.23863281 201.65613281 -242.55664062 200.93164062 C-233.96090368 192.20504565 -224.10329457 189.38969984 -212.3125 187.1875 C-211.21744141 186.97158203 -210.12238281 186.75566406 -208.99414062 186.53320312 C-206.33153223 186.00998314 -203.66720446 185.49915789 -201 185 C-201.99 184.49210938 -202.98 183.98421875 -204 183.4609375 C-211.07861208 179.78802198 -217.90095477 176.19834235 -224 171 C-224.81726563 170.31421875 -225.63453125 169.6284375 -226.4765625 168.921875 C-231.1610911 164.88998971 -231.1610911 164.88998971 -233 163 C-233 162.34 -233 161.68 -233 161 C-233.99 160.67 -234.98 160.34 -236 160 C-248.45948456 148.38115537 -256.66658572 129.17472073 -261 113 C-272.31155933 117.95206515 -281.87273782 125.54169278 -291.5625 133.0625 C-316.20733445 152.17742024 -316.20733445 152.17742024 -325.0625 152.375 C-328 152 -328 152 -329 151 C-329.83185798 144.16429748 -324.98101962 139.1283541 -321 134 C-315.32373484 127.09106454 -309.00021325 120.89641251 -302.265625 115.01953125 C-300.2383035 113.21241881 -298.36806535 111.34345204 -296.5 109.375 C-288.74912663 101.53379011 -274.50603738 90.37804611 -263.1875 89.875 C-262.465625 89.91625 -261.74375 89.9575 -261 90 C-261.05800781 88.87464844 -261.11601562 87.74929687 -261.17578125 86.58984375 C-261.89433046 66.66266136 -254.90384508 51.9969437 -242 37 C-240.66666667 35.66666667 -239.33333333 34.33333333 -238 33 C-236.24859834 30.94436425 -234.50625904 28.8825393 -232.78125 26.8046875 C-231 25 -231 25 -228.84375 23.9453125 C-226.64020636 23.08714644 -226.64020636 23.08714644 -226 20 C-223.82958984 18.54541016 -223.82958984 18.54541016 -220.9609375 17.0390625 C-219.91301025 16.48718262 -218.86508301 15.93530273 -217.78540039 15.36669922 C-216.65996826 14.79193848 -215.53453613 14.21717773 -214.375 13.625 C-213.23087646 13.0386377 -212.08675293 12.45227539 -210.90795898 11.84814453 C-184.18882678 -1.61444193 -154.97528583 -5.19503034 -126 3 C-126 3.66 -126 4.32 -126 5 C-124.40285156 5.00773438 -124.40285156 5.00773438 -122.7734375 5.015625 C-109.9644194 5.53759471 -103.87578638 10.14935749 -95 19 C-92.18490007 21.2773501 -92.18490007 21.2773501 -89 21 C-87.38694841 18.80512842 -87.38694841 18.80512842 -85.875 16 C-78.49025833 3.93980344 -67.03448406 -3.36446607 -53.57421875 -7.1875 C-34.70316986 -11.47731221 -16.24432013 -11.43966207 0 0 Z " fill="#020202" transform="translate(334,10)"/>
<path d="M0 0 C5.61120033 14.18897788 6.93671472 29.02726825 8.59863281 44.06762695 C8.91548218 47.05420569 8.91548218 47.05420569 10 50 C9.94273425 51.9384456 9.85505982 53.87605658 9.75 55.8125 C9.66765187 62.52012964 11.4066865 67.6471108 13.8046875 73.84765625 C16.02556209 79.70466865 16.59744136 84.00309873 14.5625 90.0625 C10.72924405 98.57650047 3.57932366 102.5097567 -4.44921875 106.640625 C-6.59973108 107.7866867 -8.48451717 108.99377598 -10.4375 110.4375 C-13 112 -13 112 -15 111.9375 C-16.52703013 111.22170463 -18.02228739 110.43774194 -19.5 109.625 C-28.8878341 105.26636274 -38.77094375 104.43882046 -49 104 C-49 104.66 -49 105.32 -49 106 C-50.485 106.495 -50.485 106.495 -52 107 C-52.495 108.485 -52.495 108.485 -53 110 C-52.45214844 109.84144531 -51.90429688 109.68289062 -51.33984375 109.51953125 C-40.61257809 107.13768428 -29.54676239 109.90533353 -20 115 C-22.55443744 119.58208427 -26.23731183 120.56747095 -30.9375 122.1875 C-31.65357422 122.44724609 -32.36964844 122.70699219 -33.10742188 122.97460938 C-39.30569013 125.19771393 -44.50626475 126.12743195 -51.0625 126.375 C-57.1594571 126.66045022 -62.67124757 127.36762215 -68.5078125 129.28125 C-82.53154047 133.32571073 -97.37943907 131.39494279 -111 127 C-111.75039551 126.75862305 -112.50079102 126.51724609 -113.27392578 126.26855469 C-122.26055328 123.30593024 -131.00431771 119.79547449 -139.5 115.625 C-140.21212646 115.29862549 -140.92425293 114.97225098 -141.65795898 114.63598633 C-145.75313884 112.51609909 -147.41286593 110.80819123 -148.87109375 106.375 C-149.16004517 105.2303125 -149.16004517 105.2303125 -149.45483398 104.0625 C-150.16116753 101.39026274 -151.57519271 99.35402943 -153 97 C-153.2475 95.824375 -153.495 94.64875 -153.75 93.4375 C-155.18688851 89.48605658 -156.40604226 88.94021196 -160.05859375 87.140625 C-165.79953128 83.76767981 -169.79706027 77.97345527 -171.5625 71.62890625 C-172.67738359 64.92965041 -173.21812931 57.98995375 -170.625 51.625 C-157.84894837 38.84894837 -157.84894837 38.84894837 -148.75 38.5625 C-140.6609677 38.75124409 -135.45925477 43.54074523 -130 49 C-127.42053001 49.66621008 -127.42053001 49.66621008 -125 50 C-125.10828125 48.9790625 -125.10828125 48.9790625 -125.21875 47.9375 C-126.04863794 39.26978147 -126.09931313 30.69541586 -126 22 C-105.78513186 12.95650636 -83.33933855 8.62701223 -61.75 4.25 C-60.71464111 4.03915771 -59.67928223 3.82831543 -58.61254883 3.61108398 C-47.93590079 1.49415491 -37.56519717 0.77865143 -26.6875 0.4375 C-25.44548828 0.39431641 -24.20347656 0.35113281 -22.92382812 0.30664062 C-15.27955895 0.05410315 -7.64823702 -0.05578777 0 0 Z " fill="#EECC9C" transform="translate(267,71)"/>
<path d="M0 0 C8.98323988 0.13828879 17.44850429 2.4111291 26.06640625 4.78173828 C28.48820842 5.39597762 30.90300195 5.81841674 33.36328125 6.24755859 C37.59893939 7.16064016 39.06892262 8.74535673 41.48828125 12.39599609 C43.11309997 13.86047086 44.78318279 15.27582769 46.48828125 16.64599609 C47.93654297 17.81388672 47.93654297 17.81388672 49.4140625 19.00537109 C52.45588984 21.37080735 55.55626468 23.63444542 58.67578125 25.89599609 C64.04359808 29.8924223 68.30307034 34.19697633 72.48828125 39.39599609 C73.22433594 40.29318359 73.96039063 41.19037109 74.71875 42.11474609 C80.26175475 48.9429431 80.26175475 48.9429431 81.48828125 51.39599609 C75.76908639 52.43584971 70.12782345 52.56154751 64.32299805 52.6862793 C45.16630887 53.10270297 26.60395396 54.91203714 8.01953125 59.7421875 C4.99274417 60.52399072 1.95927582 61.27736433 -1.07421875 62.03271484 C-11.7327157 64.71224993 -22.27774716 67.37823474 -32.55859375 71.29052734 C-35.55732398 72.41306789 -38.56831805 73.35741448 -41.63671875 74.27099609 C-47.39423971 76.010984 -53.08083916 77.92290208 -58.76171875 79.89599609 C-59.58945801 80.18071777 -60.41719727 80.46543945 -61.27001953 80.75878906 C-66.82224885 82.70267922 -72.16580228 84.94639697 -77.51171875 87.39599609 C-79.2156456 88.16013335 -80.92008909 88.92311946 -82.625 89.68505859 C-84.35817195 90.46348397 -86.09124429 91.24213117 -87.82421875 92.02099609 C-89.14389648 92.61267578 -89.14389648 92.61267578 -90.49023438 93.21630859 C-91.33908203 93.59787109 -92.18792969 93.97943359 -93.0625 94.37255859 C-93.82216064 94.71367676 -94.58182129 95.05479492 -95.36450195 95.40625 C-97.4364682 96.36130982 -99.47720278 97.36388236 -101.51171875 98.39599609 C-102.6378748 92.49976476 -102.37647357 87.16165752 -101.76171875 81.20849609 C-101.66665039 80.27739014 -101.57158203 79.34628418 -101.47363281 78.38696289 C-99.54790873 60.72475076 -93.30687475 49.9579764 -81.78662109 36.85888672 C-80.69150732 35.60229504 -79.62412322 34.32163197 -78.5625 33.03662109 C-71.85536745 24.96930082 -63.65799486 19.5352943 -54.38671875 14.77099609 C-53.46656982 14.29662109 -52.5464209 13.82224609 -51.59838867 13.33349609 C-39.43798751 7.19554023 -27.46211433 3.91712748 -14.01953125 1.97412109 C-2.16326793 0.02008215 -2.16326793 0.02008215 0 0 Z " fill="#327236" transform="translate(179.51171875,12.60400390625)"/>
<path d="M0 0 C1.875 0.125 1.875 0.125 4 1 C5.27230469 1.46212891 5.27230469 1.46212891 6.5703125 1.93359375 C9.41984756 4.35707293 9.40439579 4.94832594 9.75 8.52734375 C9.856245 10.32952449 9.93870848 12.13323096 10 13.9375 C10.01921928 20.76910857 10.01921928 20.76910857 13.16796875 26.51953125 C16.21946465 28.11472704 18.95153866 29.01132718 22.3125 29.75 C23.91544922 30.11351562 23.91544922 30.11351562 25.55078125 30.484375 C26.35902344 30.65453125 27.16726562 30.8246875 28 31 C26.10879937 48.26964781 20.90681281 61.45361186 7.40234375 72.88671875 C5.21363215 74.81207318 3.40974133 76.75407349 1.5625 79 C-4.89682845 86.5688131 -11.79453518 93.18606722 -22 94 C-23.63195312 94.19335938 -23.63195312 94.19335938 -25.296875 94.390625 C-36.46177948 95.47413894 -48.52213532 95.35209113 -59 91 C-61.58051038 90.38559277 -64.15742985 89.80676165 -66.75 89.25 C-73.02279761 87.83362824 -79.1145159 86.11711345 -85.1875 84 C-86.22825684 83.64470215 -86.22825684 83.64470215 -87.29003906 83.28222656 C-91.66051183 81.71175439 -95.13936435 79.6210822 -99 77 C-101.22602615 76.23060319 -101.22602615 76.23060319 -103 76 C-103.22255183 70.52275218 -102.98228701 65.34721024 -102.0625 59.9375 C-100.72255733 51.9928754 -100.36572999 44.03643521 -100 36 C-93.31816637 37.0440365 -87.2534035 38.4042476 -81 41 C-81 44.96 -81 48.92 -81 53 C-79.515 53.495 -79.515 53.495 -78 54 C-77.81824219 52.9378125 -77.63648437 51.875625 -77.44921875 50.78125 C-77.1957111 49.35409581 -76.94178218 47.9270164 -76.6875 46.5 C-76.56955078 45.80390625 -76.45160156 45.1078125 -76.33007812 44.390625 C-75.94254567 42.24429139 -75.48813329 40.12562494 -75 38 C-74.84869629 37.26676514 -74.69739258 36.53353027 -74.54150391 35.77807617 C-73.93095744 33.54119102 -73.33685819 31.89825446 -72 30 C-69.13883439 28.39515357 -66.20791266 27.88379698 -63 27.3125 C-61.18853983 26.92309297 -59.37734795 26.53243612 -57.56640625 26.140625 C-56.64230957 25.95306641 -55.71821289 25.76550781 -54.76611328 25.57226562 C-42.99695958 23.13741159 -32.27982985 20.37190484 -22 14 C-20.40928842 13.0871328 -18.81520441 12.18013008 -17.21875 11.27734375 C-15.47893685 10.28946713 -13.7393552 9.3011827 -12 8.3125 C-10.74219727 7.59876221 -10.74219727 7.59876221 -9.45898438 6.87060547 C-8.66814453 6.41443848 -7.87730469 5.95827148 -7.0625 5.48828125 C-6.35222656 5.08134033 -5.64195312 4.67439941 -4.91015625 4.25512695 C-2.94214383 3.05794963 -2.94214383 3.05794963 -1.36328125 1.33666992 C-0.91339844 0.89556885 -0.46351563 0.45446777 0 0 Z " fill="#587AD1" transform="translate(177,264)"/>
<path d="M0 0 C-1.09467073 4.97248372 -3.59069975 9.24356601 -5.94140625 13.71679688 C-10.25072208 22.103142 -12.41391701 30.16915602 -13.625 39.5 C-13.86358014 41.28173676 -14.10557587 43.06302068 -14.3515625 44.84375 C-14.50359131 46.00680664 -14.50359131 46.00680664 -14.65869141 47.19335938 C-15 49 -15 49 -16 50 C-39.75999958 55.18986416 -67.79777099 56.01552293 -91 48 C-91.66 47.34 -92.32 46.68 -93 46 C-92.54149658 45.56768066 -92.08299316 45.13536133 -91.6105957 44.68994141 C-89.49752272 42.68218878 -87.40520848 40.65396192 -85.3125 38.625 C-84.59126953 37.94566406 -83.87003906 37.26632812 -83.12695312 36.56640625 C-75.05962677 28.68326543 -71.57759287 19.95286196 -68.75 9.1875 C-68.49331543 8.23278809 -68.23663086 7.27807617 -67.97216797 6.29443359 C-66.13294951 -0.82034272 -65.02782216 -7.62712732 -65 -15 C-41.69283664 -17.71986646 -19.06030227 -14.75215176 0 0 Z " fill="#597BD2" transform="translate(276,302)"/>
<path d="M0 0 C0.69526252 10.46983556 -3.03698627 18.77603091 -7.22998047 28.15625 C-10.12837443 34.66882265 -12.33973443 41.06434702 -14 48 C-14.66 48 -15.32 48 -16 48 C-16.185625 48.85658203 -16.185625 48.85658203 -16.375 49.73046875 C-18.10462243 56.53004693 -21.14619269 61.78467754 -24.92578125 67.66015625 C-27.98915113 72.59270097 -30.50798928 77.76111382 -33 83 C-37.24812794 81.64295913 -39.17661763 79.89688192 -42 76.5 C-46.5480696 71.80980323 -49.90760123 70.96262445 -56.29296875 70.39453125 C-60.74703114 69.92049511 -64.96865183 68.94054922 -69.3125 67.875 C-70.07240234 67.69155029 -70.83230469 67.50810059 -71.61523438 67.3190918 C-73.4112596 66.88392331 -75.20580169 66.44264054 -77 66 C-76.73874558 50.7997431 -72.9675192 32.72504936 -62.2890625 21.14453125 C-61.86367188 20.76683594 -61.43828125 20.38914062 -61 20 C-60.45730469 20.40992188 -59.91460937 20.81984375 -59.35546875 21.2421875 C-58.64003906 21.78101563 -57.92460937 22.31984375 -57.1875 22.875 C-56.47980469 23.40867187 -55.77210938 23.94234375 -55.04296875 24.4921875 C-51.02187345 27.51706352 -51.02187345 27.51706352 -46 28 C-46 28.99 -46 29.98 -46 31 C-42.11038738 29.33302316 -40.5415899 27.47022837 -38.6875 23.8125 C-35.98002802 18.55983355 -32.2930979 14.98707259 -28 11 C-27.113125 10.0925 -26.22625 9.185 -25.3125 8.25 C-17.42478669 0.57546813 -10.71015943 -0.34861278 0 0 Z " fill="#3D3A43" transform="translate(345,287)"/>
<path d="M0 0 C-0.36351562 0.58523437 -0.72703125 1.17046875 -1.1015625 1.7734375 C-10.6048332 18.00209977 -13.0348663 33.37641549 -13 52 C-20.76257597 51.72942944 -26.31425578 48.56495669 -33 44.8125 C-34.0415625 44.24724609 -35.083125 43.68199219 -36.15625 43.09960938 C-42.14380797 39.79964845 -47.65427579 36.25468084 -53 32 C-53.91007812 31.32195312 -54.82015625 30.64390625 -55.7578125 29.9453125 C-61.81614541 25.28659445 -67.52142463 20.43572612 -70 13 C-70.52964775 6.3794031 -69.60639483 0.23767991 -65.37109375 -5.0234375 C-56.489775 -13.52797303 -44.79467483 -14.02615487 -33.06494141 -14.06152344 C-21.19607779 -13.70789922 -9.54418443 -6.56974874 0 0 Z " fill="#FBFBFB" transform="translate(225,220)"/>
<path d="M0 0 C0.85722656 0.54785156 1.71445312 1.09570312 2.59765625 1.66015625 C11.00056817 7.22407531 17.30812241 13.07370139 20 23 C19.67 23.99 19.34 24.98 19 26 C18.23429687 25.53980469 17.46859375 25.07960937 16.6796875 24.60546875 C12.08221752 22.31749437 7.16997559 21.91482349 2.125 21.3125 C1.1050293 21.1872998 0.08505859 21.06209961 -0.96582031 20.93310547 C-12.41921679 19.60906545 -23.55403532 18.56326241 -34.66796875 22.34375 C-37.20826084 23.05860606 -39.37404126 23.1119414 -42 23 C-42 23.66 -42 24.32 -42 25 C-61.96810934 31.33485194 -61.96810934 31.33485194 -71 34 C-72.48448016 32.23361856 -73.96241965 30.46173862 -75.4375 28.6875 C-76.26121094 27.70136719 -77.08492187 26.71523438 -77.93359375 25.69921875 C-80 23 -80 23 -81 20 C-74.88756257 7.17424147 -64.41446471 -1.95569151 -51.25390625 -7.06640625 C-32.77314884 -12.88911064 -15.98519863 -10.66532453 0 0 Z " fill="#7E3E22" transform="translate(331,18)"/>
<path d="M0 0 C3.4375 1.5 3.4375 1.5 5.41796875 2.87109375 C13.48981816 8.44219808 21.91286257 9.31720189 31.4375 10.5 C31.67741426 17.89735644 31.19534377 24.80649923 29.94921875 32.09765625 C29.08133465 37.86809175 28.76920087 43.67777676 28.4375 49.5 C7.75530739 48.14279441 7.75530739 48.14279441 -0.46875 43.5234375 C-2.77302644 42.20723333 -2.77302644 42.20723333 -6.5625 42.5 C-6.37061844 44.439509 -6.37061844 44.439509 -5.5625 46.5 C-3.72266576 47.84231442 -3.72266576 47.84231442 -1.5 48.75 C-0.76652344 49.08515625 -0.03304687 49.4203125 0.72265625 49.765625 C1.28855469 50.00796875 1.85445312 50.2503125 2.4375 50.5 C0.20801145 56.6638801 -2.97732156 61.77736439 -7.5625 66.5 C-10.5625 67.875 -10.5625 67.875 -13.5625 68.5 C-14.655625 69.056875 -15.74875 69.61375 -16.875 70.1875 C-21.4131789 71.80278401 -24.9113685 71.57794464 -29.5625 70.5 C-31.08634778 68.97615222 -30.73158901 67.62094628 -30.75 65.5 C-30.51476775 53.03269089 -25.15069436 43.285219 -17.875 33.3125 C-13.57991694 27.32425502 -11.31658764 21.21151488 -9.31640625 14.16015625 C-8.98890381 13.00978882 -8.98890381 13.00978882 -8.65478516 11.83618164 C-8.2238044 10.29850271 -7.80515096 8.75730647 -7.39990234 7.21264648 C-5.14052172 -1.00302863 -5.14052172 -1.00302863 0 0 Z " fill="#3D3A43" transform="translate(40.5625,290.5)"/>
<path d="M0 0 C5.90050491 2.60983871 8.98634725 7.48744884 12 13 C14.29239451 19.04358554 14.86028658 24.21671988 12.9375 30.4375 C9.18798504 38.198124 3.00584491 43.89593738 -5 47 C-8.38432874 47.79885899 -11.74639757 48.47932632 -15.1796875 49.03125 C-18.73315784 50.25183261 -19.38525788 51.70635382 -21 55 C-21.33 55 -21.66 55 -22 55 C-22.061875 54.0925 -22.12375 53.185 -22.1875 52.25 C-23.45842311 43.66268171 -28.01722385 35.73489687 -32 28.125 C-32.31976807 27.50689453 -32.63953613 26.88878906 -32.96899414 26.25195312 C-35.22346285 22.04649095 -37.84552447 18.58164409 -41 15 C-40.0409375 14.443125 -40.0409375 14.443125 -39.0625 13.875 C-36.1137449 12.12864567 -36.1137449 12.12864567 -33.91015625 10.46484375 C-29.13398536 7.0113048 -26.10593453 5.07834951 -20 6 C-16.5625 7 -16.5625 7 -14 8 C-14.74869792 9.72526042 -15.49739583 11.45052083 -16.24609375 13.17578125 C-16.89961942 14.75711021 -17.45891802 16.37675406 -18 18 C-14.4136536 16.06143438 -12.37339198 14.2775413 -10 11 C-9.34 11 -8.68 11 -8 11 C-8.66 9.02 -9.32 7.04 -10 5 C-11.65 5 -13.3 5 -15 5 C-10.7892675 -0.61430999 -6.82652692 -1.14325089 0 0 Z " fill="#F9F9F9" transform="translate(328,193)"/>
<path d="M0 0 C-0.39759521 0.52819336 -0.79519043 1.05638672 -1.20483398 1.60058594 C-7.19116898 9.56535498 -12.10996571 16.89312706 -15.859375 26.18359375 C-17.34072111 29.84130109 -18.61033131 32.8372032 -21 36 C-25.1257786 37.34719301 -28.75987191 36.96167336 -33 36.52734375 C-39.99351256 35.86638392 -46.98978498 35.66539658 -54.00976562 35.48242188 C-54.98494141 35.44826172 -55.96011719 35.41410156 -56.96484375 35.37890625 C-58.27376587 35.34132202 -58.27376587 35.34132202 -59.60913086 35.30297852 C-62.13290495 34.98315786 -63.81207806 34.26749237 -66 33 C-63.04444034 24.95052644 -59.70091712 18.42505209 -54 12 C-53.154375 11.030625 -52.30875 10.06125 -51.4375 9.0625 C-47.15676648 5.44034087 -42.00857229 4.68616756 -36.64453125 3.57421875 C-34.75640893 3.16424241 -32.87920666 2.70258687 -31.01171875 2.20703125 C-20.62242917 -0.39334323 -10.65087956 -0.28930961 0 0 Z " fill="#E0BD6D" transform="translate(143,213)"/>
<path d="M0 0 C2.20703125 0.0078125 2.20703125 0.0078125 5.70703125 0.6953125 C5.49046875 1.21738281 5.27390625 1.73945313 5.05078125 2.27734375 C2.47481313 9.08696317 1.02651133 16.07201548 3.5859375 23.11328125 C6.48921556 28.68029298 10.96095425 35.822274 16.70703125 38.6953125 C12.35437309 49.35344301 -3.15019658 54.14552109 -12.86962891 58.57080078 C-17.34465919 60.64736632 -21.73491708 62.89251634 -26.12963867 65.1328125 C-33.17268584 68.70051847 -33.17268584 68.70051847 -36.29296875 69.6953125 C-37.28296875 69.3653125 -38.27296875 69.0353125 -39.29296875 68.6953125 C-38.79667969 67.9425 -38.30039063 67.1896875 -37.7890625 66.4140625 C-33.1612391 59.17814887 -29.48443375 51.9311611 -26.1484375 44.02734375 C-24.11129745 39.2123867 -21.90350877 34.48332161 -19.66796875 29.7578125 C-19.30775635 28.98937012 -18.94754395 28.22092773 -18.57641602 27.42919922 C-6.50177406 1.97157714 -6.50177406 1.97157714 0 0 Z " fill="#5677CC" transform="translate(148.29296875,214.3046875)"/>
<path d="M0 0 C6.99034034 0.27052401 11.79301245 3.01099131 17.3984375 7.03515625 C18.0378125 7.49019531 18.6771875 7.94523437 19.3359375 8.4140625 C25.57517437 13.30239317 31.03611949 20.42324267 33.3984375 28.03515625 C32.9034375 29.52015625 32.9034375 29.52015625 32.3984375 31.03515625 C27.9434375 29.05515625 27.9434375 29.05515625 23.3984375 27.03515625 C23.3984375 26.37515625 23.3984375 25.71515625 23.3984375 25.03515625 C-4.5422105 18.95484571 -4.5422105 18.95484571 -32.6015625 22.03515625 C-33.0140625 21.00390625 -33.4265625 19.97265625 -33.8515625 18.91015625 C-35.39266618 15.28966866 -37.33249478 12.24314855 -39.6015625 9.03515625 C-26.98534429 3.33535886 -13.83743009 0.1869923 0 0 Z " fill="#7F3F23" transform="translate(305.6015625,46.96484375)"/>
<path d="M0 0 C1.6077832 -0.0009668 1.6077832 -0.0009668 3.24804688 -0.00195312 C12.60387879 0.05926886 21.74409669 0.87858438 31 2.1875 C21.25625111 25.19287076 21.25625111 25.19287076 16 31.1875 C11.40388852 32.85737591 7.64943411 31.29739427 3.125 30 C2.33480469 29.79052734 1.54460937 29.58105469 0.73046875 29.36523438 C-5.03827996 27.74787305 -9.64518009 25.6662578 -13.85546875 21.234375 C-16.58305715 16.35636707 -15.30826663 9.87870383 -14.125 4.625 C-13.75375 3.490625 -13.3825 2.35625 -13 1.1875 C-9.11291008 -0.75604496 -4.2735909 -0.00260744 0 0 Z " fill="#87423D" transform="translate(88,252.8125)"/>
<path d="M0 0 C3.68233904 0.69043857 5.36813928 1.93063928 8 4.5625 C12.03992621 16.68227863 9.11635421 31.24887168 4 42.5625 C2.04710415 46.07574983 0.59059081 48.61332213 -3 50.5625 C-6.0625 51 -6.0625 51 -9 50.5625 C-12.9245403 46.91828401 -14.04920928 41.5692373 -14.40625 36.3828125 C-14.68104906 28.0321226 -14.27892478 20.56150377 -11.3125 12.6875 C-11.06886719 12.04055176 -10.82523438 11.39360352 -10.57421875 10.72705078 C-8.43279578 5.62089259 -5.68161777 1.06530333 0 0 Z " fill="#080705" transform="translate(242,91.4375)"/>
<path d="M0 0 C6.32536021 0.76340554 10.63424756 4.63634303 15.25 8.8125 C17.27892903 12.68590996 16.48620151 15.20325925 15.625 19.4375 C15.06039062 19.11265625 14.49578125 18.7878125 13.9140625 18.453125 C11.41073676 17.3424344 9.72198412 17.16929275 7 17.1875 C5.83597656 17.17976563 5.83597656 17.17976563 4.6484375 17.171875 C2.39811589 17.25834646 2.39811589 17.25834646 0.625 19.4375 C-0.2658332 27.1580544 2.33211116 34.14938905 4.625 41.4375 C-2.91185992 41.19823461 -7.66914083 39.43583263 -13.375 34.4375 C-17.96768068 29.06070311 -18.02548895 23.92282588 -17.83984375 16.96484375 C-17.04683899 10.94733703 -14.68044623 5.74294623 -10.375 1.4375 C-6.92857764 0.76173091 -3.4812186 0.45126908 0 0 Z " fill="#FFFFFF" transform="translate(50.375,237.5625)"/>
<path d="M0 0 C0.67408308 1.26691507 1.33900497 2.53870749 2 3.8125 C2.37125 4.52019531 2.7425 5.22789062 3.125 5.95703125 C4 8 4 8 4 11 C0.64947733 12.94385249 -2.70604391 14.87891367 -6.0625 16.8125 C-7.47692383 17.63331055 -7.47692383 17.63331055 -8.91992188 18.47070312 C-16.28143683 22.70293298 -22.84008939 25.96850246 -31.25 27.625 C-36.17950086 28.60727313 -36.17950086 28.60727313 -41 30 C-41.05469084 27.9794772 -41.09310129 25.95851112 -41.125 23.9375 C-41.14820313 22.81214844 -41.17140625 21.68679687 -41.1953125 20.52734375 C-40.98144759 16.66494339 -40.18572077 13.66453074 -39 10 C-37.50726563 9.92265625 -37.50726563 9.92265625 -35.984375 9.84375 C-24.25048251 8.9766786 -14.48793522 5.49711177 -3.79321289 0.70263672 C-2 0 -2 0 0 0 Z " fill="#E8C799" transform="translate(276,231)"/>
<path d="M0 0 C0.495 6.435 0.495 6.435 1 13 C-1.8771875 14.299375 -1.8771875 14.299375 -4.8125 15.625 C-16.75821927 21.3772301 -26.98781293 30.09399728 -37.39892578 38.19287109 C-49.94170075 47.94326249 -49.94170075 47.94326249 -56 51 C-56.66 50.67 -57.32 50.34 -58 50 C-51.32836812 39.325389 -42.29305651 31.34344741 -33 23 C-32.3615918 22.41976074 -31.72318359 21.83952148 -31.06542969 21.24169922 C-23.20192984 14.11737678 -15.22121376 8.26382904 -6 3 C-4.60974609 2.15115234 -4.60974609 2.15115234 -3.19140625 1.28515625 C-1 0 -1 0 0 0 Z " fill="#CEC03A" transform="translate(72,103)"/>
<path d="M0 0 C2.25072437 2.90718564 2 4.1745918 2 8 C-9.03130052 14.37797906 -18.26984931 16.44138981 -31 15 C-34.0234375 13.96484375 -34.0234375 13.96484375 -36 13 C-36.48970989 9.57203076 -36.66346996 7.04319177 -34.7578125 4.046875 C-26.31507059 -5.21290645 -10.72143732 -5.55926379 0 0 Z " fill="#D76D43" transform="translate(278,137)"/>
<path d="M0 0 C2.31603361 1.60704373 4.17748567 2.89966337 6 5 C6.10023329 9.41026478 4.19382088 13.61633244 2.71875 17.75390625 C1.33847005 22.06728108 0.85261453 26.22301196 0.68359375 30.73828125 C0.64169922 31.80498047 0.59980469 32.87167969 0.55664062 33.97070312 C0.51732422 35.07349609 0.47800781 36.17628906 0.4375 37.3125 C0.39431641 38.43462891 0.35113281 39.55675781 0.30664062 40.71289062 C0.20085213 43.47514569 0.09876328 46.2374863 0 49 C-4.455 49.495 -4.455 49.495 -9 50 C-14.12072075 36.86782904 -11.11313312 22.67937905 -5.97509766 10.05761719 C-4.29488164 6.51208375 -2.18408655 3.2529413 0 0 Z " fill="#ECECEC" transform="translate(229,225)"/>
<path d="M0 0 C2.8768308 -0.11742167 4.38345409 -0.06409627 7 1 C12.69913172 6.30788698 15.67852421 14.22452082 18.875 21.1875 C19.26864746 22.04255127 19.66229492 22.89760254 20.06787109 23.77856445 C22.17990919 28.55499843 23.68113419 32.76644166 24 38 C23.67 38.33 23.34 38.66 23 39 C18.92319045 38.84319963 16.64123143 38.53435953 13.46875 35.890625 C10.73052967 32.68448094 9.32388997 29.77659039 7.75 25.875 C6.99976563 24.04582031 6.99976563 24.04582031 6.234375 22.1796875 C5.44168064 20.13774697 4.6926677 18.07800311 4 16 C2.35 15.67 0.7 15.34 -1 15 C-2.33808088 10.98575735 -2.19932094 7.18573976 -2 3 C-1.34 2.01 -0.68 1.02 0 0 Z " fill="#F2F2F2" transform="translate(277,212)"/>
<path d="M0 0 C0 5.61 0 11.22 0 17 C-1.7325 16.01 -3.465 15.02 -5.25 14 C-12.42941779 10.43143191 -18.69515306 9.49151272 -26.47265625 11.703125 C-34.96107206 15.13925901 -42.41444977 20.97877535 -47.12060547 28.88183594 C-48.14026149 31.3378425 -48.22931516 33.11341768 -48.1953125 35.765625 C-48.18886719 36.65507812 -48.18242188 37.54453125 -48.17578125 38.4609375 C-48.15902344 39.38132813 -48.14226562 40.30171875 -48.125 41.25 C-48.11146484 42.65378906 -48.11146484 42.65378906 -48.09765625 44.0859375 C-48.07413636 46.39088657 -48.04126853 48.6953116 -48 51 C-54.03888817 43.53275206 -57.67567342 34.56763399 -58 25 C-50.64854584 20.35665004 -43.08452544 16.50123247 -35.1875 12.875 C-34.10146484 12.36324219 -33.01542969 11.85148437 -31.89648438 11.32421875 C-25.31068656 8.28341715 -18.76321906 5.8392338 -11.7890625 3.83935547 C-9.36714372 3.11049021 -7.11996814 2.27613488 -4.8125 1.25 C-2 0 -2 0 0 0 Z " fill="#773B20" transform="translate(137,94)"/>
<path d="M0 0 C0 0.66 0 1.32 0 2 C-4.29985457 5.74859116 -7.30004051 6.42366016 -12.94921875 6.23828125 C-15 6 -15 6 -18 5 C-38.43116608 3.72984173 -38.43116608 3.72984173 -58 8.6875 C-61 10 -61 10 -63.4375 9.6875 C-63.953125 9.460625 -64.46875 9.23375 -65 9 C-63.63875 8.38125 -63.63875 8.38125 -62.25 7.75 C-59.01612082 6.23080034 -59.01612082 6.23080034 -57.11328125 3.98828125 C-54.69990581 1.71765629 -53.13515607 1.18628839 -49.9375 0.4375 C-45.65146733 -0.58609925 -45.65146733 -0.58609925 -41.43359375 -1.8515625 C-27.40945826 -6.43349379 -13.76413599 -4.14961839 0 0 Z " fill="#BF281F" transform="translate(164,205)"/>
<path d="M0 0 C0.99 0 1.98 0 3 0 C3 0.66 3 1.32 3 2 C4.32 2.66 5.64 3.32 7 4 C3.44847865 8.09936241 -0.79576581 10.3383554 -5.5 12.875 C-6.30808105 13.31408691 -7.11616211 13.75317383 -7.94873047 14.20556641 C-9.56375478 15.07955305 -11.18074295 15.94992181 -12.79980469 16.81640625 C-14.64000479 17.80634079 -16.4663424 18.82198766 -18.2890625 19.84375 C-28.19573815 25.19280903 -38.89860119 27.54949382 -50 29 C-46.5604972 26.18428612 -42.78086685 24.25933692 -38.8125 22.3125 C-38.11487549 21.96509766 -37.41725098 21.61769531 -36.69848633 21.25976562 C-33.01147458 19.43536663 -29.30526205 17.67046077 -25.5546875 15.98046875 C-16.17454492 11.7398018 -7.38739188 7.38739188 0 0 Z " fill="#D0B065" transform="translate(167,257)"/>
<path d="M0 0 C2.79296875 1.48046875 2.79296875 1.48046875 5 4 C5.60633649 7.10662712 5.47245317 10.1001529 5.3125 13.25 C5.28994141 14.09046875 5.26738281 14.9309375 5.24414062 15.796875 C5.18537714 17.86534964 5.09569885 19.93290488 5 22 C3.68 22 2.36 22 1 22 C0 21 0 21 -0.1328125 19.07421875 C-0.13023438 18.28660156 -0.12765625 17.49898437 -0.125 16.6875 C-0.12886719 15.51767578 -0.12886719 15.51767578 -0.1328125 14.32421875 C0 12 0 12 1 8 C-0.98 11.63 -2.96 15.26 -5 19 C-5.99 19 -6.98 19 -8 19 C-8.45732667 13.28341664 -7.52273754 10.51350747 -4 6 C-6.94103243 5.07567552 -8.55969878 4.84589457 -11.5 5.875 C-15.12030467 8.95225897 -16.92098967 12.78005136 -19 17 C-19.99 17 -20.98 17 -22 17 C-22.59513335 13.68425703 -22.36076233 11.59923235 -20.6171875 8.703125 C-14.7178609 0.88843262 -9.99327416 -2.85745183 0 0 Z " fill="#17130F" transform="translate(125,118)"/>
<path d="M0 0 C1.00595215 0.75966064 1.00595215 0.75966064 2.03222656 1.53466797 C2.78761719 2.09412109 3.54300781 2.65357422 4.32128906 3.22998047 C5.4853125 4.11943359 5.4853125 4.11943359 6.67285156 5.02685547 C8.2080612 6.17696167 9.74451932 7.32540324 11.28222656 8.47216797 C12.03826172 9.03838867 12.79429687 9.60460937 13.57324219 10.18798828 C17.27228518 12.88616802 21.08733332 15.40295722 24.92285156 17.90185547 C21.57405672 19.01812042 20.93479276 18.8188205 17.72680664 17.73022461 C16.88616165 17.44985855 16.04551666 17.16949249 15.17939758 16.88063049 C14.27618271 16.5692363 13.37296783 16.2578421 12.44238281 15.93701172 C11.51439377 15.62485214 10.58640472 15.31269257 9.6302948 14.99107361 C6.66239733 13.99056524 3.69891165 12.97763065 0.73535156 11.96435547 C-1.27413626 11.28449736 -3.28389876 10.60545051 -5.29394531 9.92724609 C-10.22490732 8.26152195 -15.152303 6.58557188 -20.07714844 4.90185547 C-20.07714844 4.24185547 -20.07714844 3.58185547 -20.07714844 2.90185547 C-18.01751991 2.22636969 -15.95430521 1.56181235 -13.88964844 0.90185547 C-12.74109375 0.53060547 -11.59253906 0.15935547 -10.40917969 -0.22314453 C-6.53557818 -1.24036228 -3.64060895 -1.9247131 0 0 Z " fill="#000000" transform="translate(239.0771484375,76.09814453125)"/>
<path d="M0 0 C0.99 0.33 1.98 0.66 3 1 C-0.09528361 12.58368212 -3.17681605 23.01936073 -10 33 C-17.77102224 44.42470096 -20.72323001 53.30832187 -22 67 C-24.68546125 64.31453875 -24.33000594 62.87750471 -24.375 59.125 C-24.12375997 47.66845481 -20.1275996 39.79835657 -13.72094727 30.64599609 C-7.9102035 22.21421303 -5.00939688 12.95400395 -2.67578125 3.046875 C-2.34126953 2.03367187 -2.34126953 2.03367187 -2 1 C-1.34 0.67 -0.68 0.34 0 0 Z " fill="#3D3A43" transform="translate(29,291)"/>
<path d="M0 0 C3.74934222 1.14994091 6.92713107 2.38241299 10.1875 4.5625 C12.5478339 6.13140044 14.27338528 7.09112843 17 8 C17.07654536 12.51617599 17.10228696 16.59085217 16 21 C11.04756589 20.26263759 5.92467304 19.44024333 2.0859375 15.97265625 C-0.50500909 11.26608061 0.01420259 5.24785668 0 0 Z " fill="#5778CE" transform="translate(190,271)"/>
<path d="M0 0 C0 5.61 0 11.22 0 17 C-1.7325 16.01 -3.465 15.02 -5.25 14 C-12.3994255 10.44633974 -18.82427404 9.35426225 -26.54296875 11.80859375 C-28.77141796 12.76790941 -30.87535875 13.83081872 -33 15 C-34.175625 15.5775 -35.35125 16.155 -36.5625 16.75 C-37.366875 17.1625 -38.17125 17.575 -39 18 C-39.99 17.34 -40.98 16.68 -42 16 C-38.37925725 14.38610304 -34.75268409 12.78572602 -31.125 11.1875 C-30.11179687 10.73568359 -29.09859375 10.28386719 -28.0546875 9.81835938 C-22.49406794 7.37667707 -17.01128762 5.24747903 -11.15185547 3.63867188 C-9.0136909 3.00406347 -7.03739484 2.21615374 -5 1.3125 C-2 0 -2 0 0 0 Z " fill="#70371F" transform="translate(137,94)"/>
<path d="M0 0 C0.66 0.33 1.32 0.66 2 1 C-2.20772068 6.89080895 -6.22752531 9.85986771 -12.75 12.75 C-14.27039767 13.44211024 -15.78990736 14.13617399 -17.30859375 14.83203125 C-18.08315918 15.18604004 -18.85772461 15.54004883 -19.65576172 15.90478516 C-24.10014034 17.98117367 -28.46198163 20.22510331 -32.82128906 22.47363281 C-35.83619157 24.00840711 -38.65171206 25.4011878 -42 26 C-42 26.66 -42 27.32 -42 28 C-45.3 28.66 -48.6 29.32 -52 30 C-52 29.34 -52 28.68 -52 28 C-51.34 28 -50.68 28 -50 28 C-50 27.01 -50 26.02 -50 25 C-49.46334717 24.77973145 -48.92669434 24.55946289 -48.3737793 24.33251953 C-35.18838318 18.88701673 -22.49556811 12.87983383 -10 6 C-8.75766602 5.3203418 -8.75766602 5.3203418 -7.49023438 4.62695312 C-6.26530273 3.9530957 -6.26530273 3.9530957 -5.015625 3.265625 C-4.27086914 2.85602539 -3.52611328 2.44642578 -2.75878906 2.02441406 C-1.03619906 1.12124167 -1.03619906 1.12124167 0 0 Z " fill="#0F1015" transform="translate(159,259)"/>
<path d="M0 0 C3.46723029 1.25205538 6.37665744 2.37665744 9 5 C9.609375 8.35546875 9.609375 8.35546875 9.75 12.1875 C9.80671875 13.45980469 9.8634375 14.73210937 9.921875 16.04296875 C9.96054688 17.50669922 9.96054688 17.50669922 10 19 C7.69 19.66 5.38 20.32 3 21 C-0.10233498 15.41579704 -2.98840341 9.52887908 -3 3 C-1.53515625 1.20703125 -1.53515625 1.20703125 0 0 Z " fill="#FFFFFF" transform="translate(57,257)"/>
<path d="M0 0 C0.66 0.33 1.32 0.66 2 1 C2.51879889 16.14124177 0.39844506 27.49604203 -7 41 C-7.66 41 -8.32 41 -9 41 C-9.28875 41.94875 -9.5775 42.8975 -9.875 43.875 C-11 47 -11 47 -13 49 C-11.88696216 41.68352752 -9.6739117 35.64970892 -6.5 29 C-2.09592725 19.35376926 -0.3990452 10.54251667 0 0 Z " fill="#3D3A43" transform="translate(348,285)"/>
<path d="M0 0 C0.8125 2.6875 0.8125 2.6875 1 6 C-1.3125 8.75 -1.3125 8.75 -4 11 C-4.66 11.66 -5.32 12.32 -6 13 C-6.99 13 -7.98 13 -9 13 C-8.25 6.375 -8.25 6.375 -6 3 C-7.65 2.67 -9.3 2.34 -11 2 C-6.99642627 -0.14477164 -4.43233175 -1.47744392 0 0 Z " fill="#1B1B1B" transform="translate(319,198)"/>
<path d="M0 0 C0.66 0 1.32 0 2 0 C2 4.95 2 9.9 2 15 C0.68 15 -0.64 15 -2 15 C-3.56033623 13.43966377 -3.20707559 11.91052864 -3.25 9.75 C-3.21146811 5.72341703 -2.66240355 3.17440423 0 0 Z " fill="#2E271E" transform="translate(128,125)"/>
<path d="M0 0 C-1.28965176 1.37562854 -2.62689293 2.70766393 -4 4 C-4.66 4 -5.32 4 -6 4 C-6 4.66 -6 5.32 -6 6 C-9.3 6.66 -12.6 7.32 -16 8 C-16 7.34 -16 6.68 -16 6 C-15.34 6 -14.68 6 -14 6 C-14 5.01 -14 4.02 -14 3 C-12.42274653 2.29866401 -10.83788667 1.614417 -9.25 0.9375 C-7.92742187 0.36322266 -7.92742187 0.36322266 -6.578125 -0.22265625 C-3.84743691 -1.04600008 -2.63098653 -0.9773992 0 0 Z " fill="#181714" transform="translate(123,281)"/>
<path d="M0 0 C2.0625 2.125 2.0625 2.125 2.0625 4.125 C3.3825 4.785 4.7025 5.445 6.0625 6.125 C6.0625 7.115 6.0625 8.105 6.0625 9.125 C5.216875 8.361875 4.37125 7.59875 3.5 6.8125 C-2.11808744 2.16803895 -7.84149869 0.74745626 -14.9375 0.125 C-14.9375 -0.205 -14.9375 -0.535 -14.9375 -0.875 C-9.54464836 -2.18235797 -4.84396596 -3.09189317 0 0 Z " fill="#FFFFFF" transform="translate(63.9375,232.875)"/>
<path d="M0 0 C1 3 1 3 -0.07421875 5.63671875 C-0.60660156 6.64347656 -1.13898438 7.65023438 -1.6875 8.6875 C-2.51701172 10.27884766 -2.51701172 10.27884766 -3.36328125 11.90234375 C-3.90339844 12.92457031 -4.44351562 13.94679688 -5 15 C-5.79647555 16.58091975 -6.58901341 18.16383934 -7.375 19.75 C-7.91125 20.8225 -8.4475 21.895 -9 23 C-9.99 22.67 -10.98 22.34 -12 22 C-10.56482191 19.26960631 -9.12644166 16.54091187 -7.6875 13.8125 C-7.28337891 13.04357422 -6.87925781 12.27464844 -6.46289062 11.48242188 C-4.4072202 7.58834701 -2.31961525 3.74591589 0 0 Z " fill="#3D3A43" transform="translate(328,349)"/>
<path d="M0 0 C0 0.33 0 0.66 0 1 C-0.845625 1.09796875 -1.69125 1.1959375 -2.5625 1.296875 C-9.56645557 2.22012369 -14.89514889 3.44808662 -21 7 C-22.3290873 7.67509196 -23.66143612 8.34389867 -25 9 C-25.99 8.34 -26.98 7.68 -28 7 C-8.57398271 -2.75746178 -8.57398271 -2.75746178 0 0 Z " fill="#592C18" transform="translate(123,103)"/>
<path d="M0 0 C2.76276177 0.52268466 5.3260876 1.10869587 8 2 C7.67 3.98 7.34 5.96 7 8 C3.08597051 6.73058503 1.20927127 5.48832306 -1 2 C-0.67 1.34 -0.34 0.68 0 0 Z " fill="#FFFFFF" transform="translate(67,227)"/>
<path d="M0 0 C0.33 0 0.66 0 1 0 C1.33 8.25 1.66 16.5 2 25 C0.02 24.67 -1.96 24.34 -4 24 C-2.68 23.67 -1.36 23.34 0 23 C0 15.41 0 7.82 0 0 Z " fill="#505050" transform="translate(212,249)"/>
<path d="M0 0 C0.66 0.33 1.32 0.66 2 1 C-1.63 4.63 -5.26 8.26 -9 12 C-9.33 11.34 -9.66 10.68 -10 10 C-3.84965831 2.51708428 -3.84965831 2.51708428 0 0 Z " fill="#CEB087" transform="translate(106,114)"/>
<path d="M0 0 C0.81210938 0.56847656 0.81210938 0.56847656 1.640625 1.1484375 C1.640625 1.4784375 1.640625 1.8084375 1.640625 2.1484375 C-0.29413171 2.67937074 -2.23230655 3.19786067 -4.171875 3.7109375 C-5.79029297 4.14599609 -5.79029297 4.14599609 -7.44140625 4.58984375 C-10.359375 5.1484375 -10.359375 5.1484375 -13.359375 4.1484375 C-11.61908198 3.25428695 -9.8666735 2.38368572 -8.109375 1.5234375 C-7.13484375 1.03617187 -6.1603125 0.54890625 -5.15625 0.046875 C-2.359375 -0.8515625 -2.359375 -0.8515625 0 0 Z " fill="#9A824B" transform="translate(130.359375,280.8515625)"/>
<path d="M0 0 C0.66 0 1.32 0 2 0 C2 2.97 2 5.94 2 9 C1.01 8.67 0.02 8.34 -1 8 C-1.125 2.25 -1.125 2.25 0 0 Z " fill="#D6D6D6" transform="translate(241,101)"/>
<path d="M0 0 C0.8353125 0.37125 0.8353125 0.37125 1.6875 0.75 C0.6975 1.245 0.6975 1.245 -0.3125 1.75 C-0.3125 3.4 -0.3125 5.05 -0.3125 6.75 C-0.910625 6.440625 -1.50875 6.13125 -2.125 5.8125 C-4.40206772 4.64790296 -4.40206772 4.64790296 -7.3125 3.75 C-2.88173077 -0.31153846 -2.88173077 -0.31153846 0 0 Z " fill="#BCBCBC" transform="translate(320.3125,193.25)"/>
<path d="M0 0 C1.34313399 0.64669414 2.67391178 1.31903578 4 2 C4.9075 2.433125 5.815 2.86625 6.75 3.3125 C7.4925 3.869375 8.235 4.42625 9 5 C9.3125 7.6875 9.3125 7.6875 9 10 C5.73991357 6.83047153 2.77762123 3.60062011 0 0 Z " fill="#62301B" transform="translate(99,162)"/>
<path d="M0 0 C1.32 0.33 2.64 0.66 4 1 C3.360625 1.350625 2.72125 1.70125 2.0625 2.0625 C-0.82163832 4.77184206 -0.7100822 7.15858911 -1 11 C-1.33 11 -1.66 11 -2 11 C-2.25 3.375 -2.25 3.375 0 0 Z " fill="#C4C4C4" transform="translate(277,212)"/>
<path d="M0 0 C0.66 0.33 1.32 0.66 2 1 C0.6875 3.9375 0.6875 3.9375 -1 7 C-1.99 7.33 -2.98 7.66 -4 8 C-2.87548273 5.0280615 -1.77706209 2.66559313 0 0 Z " fill="#C4A881" transform="translate(126,125)"/>
</svg>
