<?xml version="1.0" encoding="UTF-8"?>
<svg version="1.1" xmlns="http://www.w3.org/2000/svg" width="268" height="108">
<path d="M0 0 C6.95466944 6.2078593 12.90499422 12.5334768 17 21 C17.41121094 21.83917969 17.82242187 22.67835937 18.24609375 23.54296875 C20.52261231 28.87585134 21.48657666 34.09729507 21.75 39.875 C21.80671875 41.10992187 21.8634375 42.34484375 21.921875 43.6171875 C20.9106513 47.32786429 20.56505945 47.71199696 17.51171875 49.703125 C16.02718725 50.50567212 14.52202779 51.27106443 13 52 C12.2972998 52.33725098 11.59459961 52.67450195 10.87060547 53.02197266 C-57.77919604 84.03064636 -151.40936448 83.7709635 -221.6171875 57.984375 C-230.42465536 54.61695542 -238.92065827 50.89207848 -247 46 C-248.06287392 29.61402713 -242.35467173 17.98109348 -232.09375 5.72265625 C-179.93828754 -50.07926863 -56.09010152 -46.75564183 0 0 Z " fill="#F9F9F9" transform="translate(247,33)"/>
<path d="M0 0 C1.14416836 3.77864003 1.37931294 7.50482451 1.5625 11.4375 C1.68818359 13.38462891 1.68818359 13.38462891 1.81640625 15.37109375 C0.9258808 19.32945805 0.71510214 19.65622295 -2.4765625 21.73046875 C-3.96467184 22.52503602 -5.47380076 23.28130506 -7 24 C-7.70294189 24.33668701 -8.40588379 24.67337402 -9.13012695 25.02026367 C-77.56216291 55.99558319 -171.68401557 55.95005207 -241.65234375 29.94921875 C-249.96461398 26.74135731 -258.17621068 23.28249521 -266 19 C-262.56319271 17.84903175 -260.20280042 18.19359825 -256.6875 18.9375 C-243.40597312 21.24111411 -231.40068719 19.5520679 -218.23266602 17.43432617 C-208.46074583 15.92311994 -198.87285235 15.28812767 -189 16 C-188 17 -188 17 -187.9375 19.5625 C-187.958125 20.366875 -187.97875 21.17125 -188 22 C-178.99063346 26.50468327 -163.51346731 22.9598348 -154.41015625 20.13671875 C-153.28480469 19.76160156 -152.15945312 19.38648437 -151 19 C-149.32744141 18.51466797 -149.32744141 18.51466797 -147.62109375 18.01953125 C-141.22997618 16.1503402 -141.22997618 16.1503402 -135.875 12.375 C-130.41604798 7.86543094 -122.79565736 7.53580342 -115.875 7.66796875 C-114 8 -114 8 -112.125 9.9375 C-109.12159115 12.85257329 -106.74500084 12.86477936 -102.640625 13.1171875 C-97.04168518 12.93696412 -91.58188222 12.00839876 -86.05737305 11.11889648 C-80.42648083 10.24317997 -75.06787477 9.82753062 -69.375 10 C-63.56403711 10.14144332 -58.92881109 9.44377725 -53.41796875 7.66796875 C-49.85046863 6.68243964 -46.67796219 6.79181346 -43 7 C-42.67 7.99 -42.34 8.98 -42 10 C-28.74251683 12.86985518 -16.57634246 7.18761051 -4.94921875 1.390625 C-2 0 -2 0 0 0 Z " fill="#B4D5E6" transform="translate(267,61)"/>
</svg>
