<?xml version="1.0" encoding="UTF-8"?>
<svg version="1.1" xmlns="http://www.w3.org/2000/svg" width="371" height="150">
<path d="M0 0 C3.35587315 0.02381968 6.71095666 0.02049629 10.06689453 0.01391602 C22.50458682 0.02977976 34.64512899 0.59631262 46.96142578 2.33618164 C48.57742676 2.55504028 48.57742676 2.55504028 50.22607422 2.77832031 C95.18361564 9.17037009 146.8575508 24.81412073 175.83642578 62.33618164 C187.06490515 78.12114539 189.49775053 91.3463126 188.96142578 110.33618164 C174.99226466 118.28653358 161.31804031 125.51222454 145.96142578 130.33618164 C145.07084473 130.62154785 144.18026367 130.90691406 143.26269531 131.20092773 C99.56951059 145.05633604 53.21311836 150.99530606 7.4668045 150.84271622 C5.35870148 150.83605453 3.2506296 150.83426365 1.14251709 150.83285522 C-23.50236403 150.79384441 -47.67362956 149.16829505 -72.03857422 145.33618164 C-73.33633789 145.13863281 -74.63410156 144.94108398 -75.97119141 144.73754883 C-83.72227045 143.52755294 -91.383225 142.04733777 -99.03857422 140.33618164 C-100.28429199 140.05935547 -101.53000977 139.7825293 -102.81347656 139.49731445 C-167.42078662 124.95396924 -167.42078662 124.95396924 -182.03857422 110.33618164 C-185.03119 91.46004894 -178.61328812 75.5763445 -168.03857422 60.33618164 C-154.14120573 41.81553017 -131.17119945 28.75779106 -110.03857422 20.33618164 C-108.81525391 19.8424707 -107.59193359 19.34875977 -106.33154297 18.84008789 C-91.37732581 12.93660303 -75.99206674 8.74468303 -60.22607422 5.64868164 C-59.26910645 5.45846436 -58.31213867 5.26824707 -57.32617188 5.07226562 C-53.90551716 4.43225237 -50.47775734 3.8652293 -47.03857422 3.33618164 C-46.21397705 3.20843353 -45.38937988 3.08068542 -44.53979492 2.94906616 C-29.6531183 0.70834776 -15.04668293 -0.11383931 0 0 Z " fill="#F9F9F9" transform="translate(182.03857421875,-0.336181640625)"/>
<path d="M0 0 C2.3125 1.625 2.3125 1.625 3.3125 3.625 C3.44665472 6.2973621 3.35568541 8.94750488 3.3125 11.625 C4.78009766 10.71621094 4.78009766 10.71621094 6.27734375 9.7890625 C10.31929221 7.4808303 14.4008484 6.20901519 18.875 5 C20.33490367 4.59210472 21.79454446 4.18326727 23.25390625 3.7734375 C23.94572998 3.58152832 24.63755371 3.38961914 25.3503418 3.19189453 C27.12033837 2.68051814 28.87058741 2.10195411 30.6171875 1.515625 C41.14856633 -1.96430887 58.58713637 -2.67423499 68.625 2.25 C69.511875 2.70375 70.39875 3.1575 71.3125 3.625 C73.31473948 3.3053937 75.31414949 2.96808359 77.3125 2.625 C91.30076182 1.81438103 104.61776476 2.8722894 118.3125 5.625 C120.2914959 5.91782307 122.2706388 6.20965647 124.25 6.5 C133.02189946 8.13041449 140.26494613 12.3393346 147.3125 17.625 C148.3025 17.955 149.2925 18.285 150.3125 18.625 C150.3125 19.615 150.3125 20.605 150.3125 21.625 C136.34333888 29.57535194 122.66911453 36.8010429 107.3125 41.625 C106.42191895 41.91036621 105.53133789 42.19573242 104.61376953 42.48974609 C60.92058481 56.3451544 14.56419258 62.28412442 -31.18212128 62.13153458 C-33.29022431 62.12487289 -35.39829618 62.12308201 -37.50640869 62.12167358 C-62.15128981 62.08266277 -86.32255534 60.45711341 -110.6875 56.625 C-111.98526367 56.42745117 -113.28302734 56.22990234 -114.62011719 56.02636719 C-122.37119623 54.8163713 -130.03215078 53.33615613 -137.6875 51.625 C-138.93321777 51.34817383 -140.17893555 51.07134766 -141.46240234 50.78613281 C-165.99182785 45.26478068 -190.23490068 38.1567772 -212.6875 26.625 C-196.68053124 12.67340077 -175.11779313 9.43360873 -154.6875 10.625 C-140.04999882 11.72525761 -140.04999882 11.72525761 -134.41015625 13.234375 C-132.39661595 13.81320919 -132.39661595 13.81320919 -129.1875 12.9375 C-125.6875 12.625 -125.6875 12.625 -123.3125 14.4375 C-121.6875 16.625 -121.6875 16.625 -120.6875 18.625 C-119.6975 18.295 -118.7075 17.965 -117.6875 17.625 C-117.41421875 17.02042969 -117.1409375 16.41585937 -116.859375 15.79296875 C-115.18655326 12.69824854 -112.96394793 11.67281405 -109.9375 9.9375 C-108.91140625 9.33550781 -107.8853125 8.73351562 -106.828125 8.11328125 C-99.74453694 4.75650631 -91.69280214 5.26946577 -84 5.125 C-82.1756543 5.04378906 -82.1756543 5.04378906 -80.31445312 4.9609375 C-72.25660037 4.83983182 -67.47722087 6.14828629 -61.01171875 11.02587891 C-58.00554326 13.09420343 -55.78525992 13.61815012 -52.18359375 13.31640625 C-47.59993236 12.04675357 -43.49727896 9.743822 -39.32421875 7.5078125 C-33.9914601 4.67643622 -28.36940369 2.63963621 -22.6875 0.625 C-21.511875 0.191875 -20.33625 -0.24125 -19.125 -0.6875 C-12.63892302 -1.9847154 -6.2448116 -2.32857382 0 0 Z " fill="#B4D5E6" transform="translate(220.6875,88.375)"/>
<path d="M0 0 C0.66 0.33 1.32 0.66 2 1 C-1.96 4.96 -5.92 8.92 -10 13 C-10.66 12.67 -11.32 12.34 -12 12 C-8.57833482 7.29521038 -4.42094803 3.72346836 0 0 Z " fill="#DAEEF9" transform="translate(30,44)"/>
</svg>
