<?xml version="1.0" encoding="UTF-8"?>
<svg version="1.1" xmlns="http://www.w3.org/2000/svg" width="312" height="183">
<path d="M0 0 C4.87349054 2.12040451 9.496974 4.72402138 14.12060547 7.33496094 C16.67677847 8.76337324 19.23847926 10.18089022 21.80810547 11.58496094 C22.72257446 12.08684937 22.72257446 12.08684937 23.65551758 12.59887695 C28.84129087 15.36245303 34.02687541 17.1027203 39.70654297 18.64355469 C42.12060547 19.33496094 42.12060547 19.33496094 43.12060547 20.33496094 C44.60384074 20.23896868 46.08293612 20.07933113 47.55810547 19.89746094 C59.79057113 18.7172752 71.8611998 17.65296984 83.12060547 23.33496094 C84.07708984 23.81707031 85.03357422 24.29917969 86.01904297 24.79589844 C90.90986915 27.37898894 95.59102644 30.16425562 100.12060547 33.33496094 C101.11060547 33.99496094 102.10060547 34.65496094 103.12060547 35.33496094 C103.12060547 35.99496094 103.12060547 36.65496094 103.12060547 37.33496094 C103.71486328 37.58632813 104.30912109 37.83769531 104.92138672 38.09667969 C109.44874822 40.6458335 112.56173836 45.41884514 113.99560547 50.33496094 C114.05748047 51.32496094 114.05748047 51.32496094 114.12060547 52.33496094 C114.78060547 52.33496094 115.44060547 52.33496094 116.12060547 52.33496094 C116.44673828 53.34816406 116.77287109 54.36136719 117.10888672 55.40527344 C117.55004782 56.75691597 117.99146789 58.10847401 118.43310547 59.45996094 C118.64644531 60.12511719 118.85978516 60.79027344 119.07958984 61.47558594 C121.05989356 67.50516741 123.01037647 73.2590493 128.12060547 77.33496094 C130.60459853 78.47010414 133.00164494 79.47033791 135.55810547 80.39746094 C147.23503504 84.72607691 147.23503504 84.72607691 149.89013672 89.54980469 C152.37055501 97.1800438 152.88981717 105.77019944 149.60888672 113.24121094 C146.06888333 120.16291378 141.53308396 125.87628449 135.12060547 130.33496094 C134.46060547 130.81449219 133.80060547 131.29402344 133.12060547 131.78808594 C125.09745271 137.24132258 117.64494196 137.65010442 108.12060547 137.33496094 C108.15541016 138.05941406 108.19021484 138.78386719 108.22607422 139.53027344 C108.385167 145.2121583 108.50136095 149.50531025 105.12060547 154.33496094 C100.27692467 158.86614621 95.41748494 158.43990893 89.12060547 158.33496094 C88.93626953 159.01300781 88.75193359 159.69105469 88.56201172 160.38964844 C85.83273461 169.14759542 81.17198343 175.72683382 73.65966797 181.09277344 C67.2219715 184.24229263 59.06613153 182.64573477 52.48779297 180.45996094 C47.97225041 178.31396051 43.39117003 174.87609006 41.12060547 170.33496094 C41.08061347 168.33536082 41.07713748 166.33448852 41.12060547 164.33496094 C40.03005859 164.39683594 38.93951172 164.45871094 37.81591797 164.52246094 C32.26824901 164.52246094 27.27156243 162.91561201 21.99560547 161.33496094 C11.62291008 157.82794955 11.62291008 157.82794955 1.30810547 159.95996094 C-18.39129828 169.09450294 -43.98444851 176.07255607 -65.13720703 168.48339844 C-68.4592489 167.09211595 -71.03066712 165.52628972 -73.87939453 163.33496094 C-77.20105224 161.12052246 -79.41564511 160.73138363 -83.31689453 160.02246094 C-93.0600118 158.02361523 -101.60679129 154.47227706 -109.94189453 149.05761719 C-111.86453673 148.11736476 -111.86453673 148.11736476 -113.80908203 148.92089844 C-116.428016 150.70967975 -118.68196042 152.73794384 -121.00439453 154.89746094 C-127.84520335 161.24094093 -132.98262529 160.9075051 -142.07080078 160.75292969 C-148.12010888 160.42825262 -152.37486651 158.35126813 -156.87939453 154.33496094 C-157.99507812 153.39910156 -157.99507812 153.39910156 -159.13330078 152.44433594 C-160.87939453 150.33496094 -160.87939453 150.33496094 -161.39111328 147.79980469 C-160.69830936 144.46271098 -159.47555211 143.81371488 -156.69189453 141.89746094 C-146.12135016 133.94338794 -137.76872382 123.60350403 -130.00048828 112.97949219 C-127.57558096 109.95617311 -125.69333376 107.6895656 -121.80126953 106.92871094 C-121.08455078 106.89777344 -120.36783203 106.86683594 -119.62939453 106.83496094 C-114.90921573 106.46108539 -111.24768663 105.14253008 -106.87939453 103.33496094 C-105.88939453 103.00496094 -104.89939453 102.67496094 -103.87939453 102.33496094 C-103.87939453 101.67496094 -103.87939453 101.01496094 -103.87939453 100.33496094 C-102.88939453 100.33496094 -101.89939453 100.33496094 -100.87939453 100.33496094 C-100.83814453 99.55121094 -100.79689453 98.76746094 -100.75439453 97.95996094 C-99.69054301 93.55257608 -97.67917063 90.39903362 -95.25439453 86.60449219 C-93.74614938 84.30375559 -93.74614938 84.30375559 -92.87939453 81.33496094 C-93.47751953 81.24214844 -94.07564453 81.14933594 -94.69189453 81.05371094 C-98.25628153 79.88255521 -99.46230067 77.49403291 -101.41455078 74.40917969 C-103.24240585 70.57312119 -104.32719274 66.76944475 -105.31689453 62.64746094 C-105.49285156 61.92300781 -105.66880859 61.19855469 -105.85009766 60.45214844 C-107.05122654 54.92796919 -106.68131422 50.74071999 -104.87939453 45.33496094 C-102.25439453 45.27246094 -102.25439453 45.27246094 -98.87939453 46.33496094 C-97.16780272 48.49268194 -95.81770108 50.70852551 -94.46923828 53.10839844 C-92.55837001 55.78455302 -90.77525501 56.80635423 -87.87939453 58.33496094 C-86.97060547 58.85316406 -86.06181641 59.37136719 -85.12548828 59.90527344 C-84.19865234 60.41832031 -83.27181641 60.93136719 -82.31689453 61.45996094 C-81.38748047 61.97816406 -80.45806641 62.49636719 -79.50048828 63.03027344 C-75.082351 65.23810884 -75.082351 65.23810884 -70.32080078 64.62792969 C-68.89574219 64.08072266 -68.89574219 64.08072266 -67.44189453 63.52246094 C-61.00361015 61.22817711 -54.64565044 60.16437295 -47.87939453 59.33496094 C-48.41048828 58.89925781 -48.94158203 58.46355469 -49.48876953 58.01464844 C-55.43894124 52.9982628 -60.14054656 48.15977679 -61.87939453 40.33496094 C-62.81301235 28.29620483 -62.81301235 28.29620483 -58.87939453 23.33496094 C-56.28564453 21.78808594 -56.28564453 21.78808594 -53.37939453 20.58496094 C-52.42033203 20.17761719 -51.46126953 19.77027344 -50.47314453 19.35058594 C-43.50964843 16.62391578 -36.37674388 16.40233444 -29.12939453 18.33496094 C-28.38689453 18.66496094 -27.64439453 18.99496094 -26.87939453 19.33496094 C-26.92064453 18.28308594 -26.96189453 17.23121094 -27.00439453 16.14746094 C-26.85751241 11.6675561 -26.54063256 9.01712136 -23.32861328 5.76464844 C-16.41127254 -0.36764079 -9.29314603 -3.28845542 0 0 Z " fill="#010101" transform="translate(160.87939453125,0.6650390625)"/>
<path d="M0 0 C1.6484375 1.30859375 1.6484375 1.30859375 3.125 2.6875 C6.79313981 5.63796028 8.36721548 5.02346902 13 5 C15.89084864 5.52159149 18.71714588 6.27375548 21.5625 7 C29.53291554 8.88278171 36.79529626 9.44554231 45 9 C46.77078673 8.91954056 48.54162428 8.84019506 50.3125 8.76171875 C55.21012138 8.53636807 60.10497256 8.27577619 65 8 C65.33 7.01 65.66 6.02 66 5 C65.43796875 5.16371094 64.8759375 5.32742187 64.296875 5.49609375 C61.86940944 6.02864997 59.73110319 6.09898681 57.25 6.0625 C56.45078125 6.05347656 55.6515625 6.04445313 54.828125 6.03515625 C54.22484375 6.02355469 53.6215625 6.01195312 53 6 C55.60166784 4.26555478 57.10925318 3.54674671 60.01953125 2.74609375 C60.79490234 2.53146484 61.57027344 2.31683594 62.36914062 2.09570312 C63.57860352 1.76989258 63.57860352 1.76989258 64.8125 1.4375 C65.60720703 1.21642578 66.40191406 0.99535156 67.22070312 0.76757812 C74.56594976 -1.24340338 81.39243809 -2.18122313 89 -2.1875 C90.17175781 -2.20586914 90.17175781 -2.20586914 91.3671875 -2.22460938 C95.98112344 -2.23626073 99.65726671 -1.76075564 104 0 C104 0.99 104 1.98 104 3 C105.98 3.66 107.96 4.32 110 5 C110 5.66 110 6.32 110 7 C111.05380859 7.33837891 111.05380859 7.33837891 112.12890625 7.68359375 C115.6069662 9.27829607 118.17010717 11.48089141 120.9375 14.0625 C121.72809814 14.79243164 121.72809814 14.79243164 122.53466797 15.53710938 C126.79787795 19.58274136 130.05274922 23.91122168 133 29 C133.66 29.99 134.32 30.98 135 32 C135 33.32 135 34.64 135 36 C135.66 36 136.32 36 137 36 C137.33 37.32 137.66 38.64 138 40 C138.66 40 139.32 40 140 40 C140.99 42.97 140.99 42.97 142 46 C142.66 46 143.32 46 144 46 C144.25394531 46.71027344 144.50789062 47.42054687 144.76953125 48.15234375 C145.28580078 49.53099609 145.28580078 49.53099609 145.8125 50.9375 C146.14894531 51.85402344 146.48539063 52.77054688 146.83203125 53.71484375 C147.83409094 56.3340424 147.83409094 56.3340424 151 57 C151.0825 58.03125 151.165 59.0625 151.25 60.125 C152.08499129 64.43912167 153.18291202 66.64994943 156 70 C160.21899067 72.7189051 164.03836296 73.5038363 169 74 C169.64450937 81.41185774 167.52656619 87.51118839 163.1640625 93.53515625 C155.33574955 102.75816864 146.04662624 105.2193456 134.19506836 106.36914062 C130.90433512 106.54903652 127.6187113 106.68669384 124.32397461 106.76342773 C122.302843 106.81273559 120.28386535 106.88846832 118.26367188 106.96679688 C110.88885566 107.18124446 104.14348309 106.92361151 97 105 C96.87471924 104.36465332 96.74943848 103.72930664 96.62036133 103.07470703 C96.1984235 100.82840066 96.1984235 100.82840066 94.07421875 99.8046875 C92.89279297 99.34449219 92.89279297 99.34449219 91.6875 98.875 C87 97 87 97 84.95703125 95.8828125 C82.75012471 94.72586887 82.75012471 94.72586887 79 95 C79 100.61 79 106.22 79 112 C62.29348852 109.68952501 62.29348852 109.68952501 56 107 C55.67 106.34 55.34 105.68 55 105 C54.01 104.649375 53.02 104.29875 52 103.9375 C38.35525286 98.15724052 31.44126416 81.01434764 25.87719727 68.21435547 C22.64644641 60.05880014 19.32205721 49.51934581 21.87109375 40.8671875 C23.68170009 37.87248221 25.90756633 37.1029469 29.140625 35.98828125 C32.7337329 34.74640106 36.08624866 33.16374635 39.5 31.5 C40.43537598 31.07231323 40.43537598 31.07231323 41.38964844 30.63598633 C44.91738154 28.98168178 44.91738154 28.98168178 46.90625 25.78125 C46.9371875 25.1934375 46.968125 24.605625 47 24 C41.93203331 24.95622013 38.14184562 26.37603203 33.6875 29 C18.42619873 37.60678614 -1.67865167 34.62831461 -17.96875 30.19140625 C-24.44871819 27.69484316 -28.72542204 22.97658974 -32.1328125 17.01953125 C-33.99960303 12.80663912 -34.65556883 8.62223083 -33.9765625 4.05078125 C-32.26072783 0.44752845 -29.078993 -0.62075335 -25.54296875 -2.125 C-17.0260804 -5.05554223 -8.13936986 -3.8811281 0 0 Z " fill="#DC9D3C" transform="translate(138,27)"/>
<path d="M0 0 C0.70125 0.7425 1.4025 1.485 2.125 2.25 C8.61184287 8.45480622 15.60154917 11.02792184 24 14 C24.72574219 14.29777344 25.45148438 14.59554687 26.19921875 14.90234375 C31.72617765 16.86053254 35.96453012 15.04114374 41.16796875 13.04296875 C45.80554835 11.33506012 49.88441414 10.87812547 54.8125 10.9375 C55.78832031 10.94652344 56.76414062 10.95554687 57.76953125 10.96484375 C58.87361328 10.98224609 58.87361328 10.98224609 60 11 C56.60488196 15.09155251 53.16571741 18.7755764 49.25 22.375 C44.80217623 26.7181691 43.68015276 29.87862516 43 36 C44.6630584 36.67561748 46.33094605 37.33933281 48 38 C49.1859375 38.474375 50.371875 38.94875 51.59375 39.4375 C56.14702941 41.13821645 60.7466347 42.20707072 65.5 43.1875 C66.70462891 43.45336914 66.70462891 43.45336914 67.93359375 43.72460938 C74.2346188 45.04710977 80.73323079 46.08892307 87 44 C87.2475 45.03125 87.495 46.0625 87.75 47.125 C88.03037109 48.2078125 88.03037109 48.2078125 88.31640625 49.3125 C88.83381799 51.34666729 89.31438665 53.39025253 89.77734375 55.4375 C91.9200652 64.43156293 91.9200652 64.43156293 98.08203125 70.90234375 C99.03142578 71.44568359 99.03142578 71.44568359 100 72 C100.96486328 72.55880859 100.96486328 72.55880859 101.94921875 73.12890625 C108.28022697 76.49963951 114.85887791 79.10735974 122 80 C122.33 79.34 122.66 78.68 123 78 C123.886875 78.556875 124.77375 79.11375 125.6875 79.6875 C134.7808936 84.90502092 144.41160197 87.97194269 154.8125 88.625 C155.84213867 88.70234375 155.84213867 88.70234375 156.89257812 88.78125 C160.38831015 89.00614099 163.24721309 88.95737705 166.73828125 88.35546875 C170 88 170 88 172.3984375 89.07421875 C173.05070313 89.60660156 173.70296875 90.13898438 174.375 90.6875 C175.04273438 91.20699219 175.71046875 91.72648437 176.3984375 92.26171875 C178.16755617 94.18185975 178.61102727 95.44945025 179 98 C176.03 97.505 176.03 97.505 173 97 C174.92391649 102.31411494 174.92391649 102.31411494 179 106 C178.67 107.32 178.34 108.64 178 110 C177.13375 109.195625 176.2675 108.39125 175.375 107.5625 C172.37123907 105.03075864 169.96796738 104.28342624 166 104 C165.67 104.99 165.34 105.98 165 107 C165.5775 107.2475 166.155 107.495 166.75 107.75 C169.41076851 109.22820473 171.13556544 110.58314039 173 113 C172.9375 115.625 172.9375 115.625 172 118 C168.25651771 120.49565486 165.32629874 120.38730674 161 120 C155.78876462 118.85352822 152.67555648 116.76103454 149 113 C148.22306605 110.16974061 148 107.90567855 148 105 C147.30777344 104.97421875 146.61554688 104.9484375 145.90234375 104.921875 C134.80992212 104.27883607 124.56434293 101.29899234 114.1171875 97.65234375 C110.88816543 96.65742366 107.59735967 96.08141109 104.27734375 95.47265625 C102 95 102 95 98.875 93.875 C95.10630721 92.72800654 91.93000618 92.86448255 88 93 C87.67 94.32 87.34 95.64 87 97 C87.66386719 96.97679687 88.32773438 96.95359375 89.01171875 96.9296875 C97.78207381 96.75043937 97.78207381 96.75043937 102 99 C90.61582676 108.15977206 73.16335977 110.23152833 59 111 C57.89011719 111.0928125 56.78023438 111.185625 55.63671875 111.28125 C47.83933251 111.68578366 41.93600862 109.44340854 35 106 C36.64887357 104.90075096 38.31550347 103.82264241 40.04296875 102.8515625 C40.75066406 102.44679688 41.45835938 102.04203125 42.1875 101.625 C42.90292969 101.22539062 43.61835937 100.82578125 44.35546875 100.4140625 C45.16951172 99.71410156 45.16951172 99.71410156 46 99 C46 97.68 46 96.36 46 95 C44.96875 95.433125 43.9375 95.86625 42.875 96.3125 C42.29492188 96.55613281 41.71484375 96.79976563 41.1171875 97.05078125 C38.85057965 98.02193651 38.85057965 98.02193651 36.25390625 99.6015625 C32.37901075 101.26688374 29.18278655 101.35623183 25.0625 101.0625 C24.32394775 101.01311279 23.58539551 100.96372559 22.82446289 100.9128418 C11.49272584 99.87299967 1.66653001 95.30746053 -7 88 C-8.32674811 87.07382776 -9.65987636 86.15671064 -11 85.25 C-11.99 84.5075 -12.98 83.765 -14 83 C-14 82.34 -14 81.68 -14 81 C-14.66 81 -15.32 81 -16 81 C-16.33 79.02 -16.66 77.04 -17 75 C-17.99 75 -18.98 75 -20 75 C-20.2895202 80.0183501 -20.00114533 82.08546261 -17 86 C-17.15258361 89.48594866 -17.8381412 90.82301154 -20.21484375 93.421875 C-21.11332031 94.19015625 -22.01179688 94.9584375 -22.9375 95.75 C-23.83339844 96.52859375 -24.72929688 97.3071875 -25.65234375 98.109375 C-30.10557368 101.69566999 -33.9779628 101.43981615 -39.578125 101.43359375 C-44.75833623 100.77719712 -48.12400809 98.36520228 -52 95 C-50.62845314 91.81580579 -49.13830017 90.02887404 -46.4375 87.875 C-43.78974334 85.79096366 -43.78974334 85.79096366 -42 83 C-41.34 83 -40.68 83 -40 83 C-39.73832031 82.42121094 -39.47664063 81.84242188 -39.20703125 81.24609375 C-37.92707261 78.86429369 -36.48643946 77.07683354 -34.6875 75.0625 C-34.06488281 74.36511719 -33.44226563 73.66773438 -32.80078125 72.94921875 C-30.59902505 70.56597288 -28.29410052 68.29410052 -26 66 C-25.11466191 64.96710556 -24.23981762 63.92513568 -23.375 62.875 C-18.3358988 56.77503539 -18.3358988 56.77503539 -13.8125 56.0625 C-9.03885538 55.13105715 -5.22017993 53.36403952 -1 51 C-0.071875 50.525625 0.85625 50.05125 1.8125 49.5625 C4.48970862 47.65020813 5.35883179 45.864303 7 43 C7.75141318 41.7419971 8.50551087 40.48559532 9.26171875 39.23046875 C9.85629883 38.23950195 9.85629883 38.23950195 10.46289062 37.22851562 C12.30859375 34.15234375 14.15429688 31.07617188 16 28 C15.37996094 27.87625 14.75992188 27.7525 14.12109375 27.625 C9.20416861 26.17618228 6.52181241 19.97786615 4.171875 15.69140625 C1.98980421 10.67991701 1.01706652 5.34993526 0 0 Z " fill="#DC9D3C" transform="translate(59,55)"/>
<path d="M0 0 C0.66 0 1.32 0 2 0 C2.99 2.97 2.99 2.97 4 6 C4.66 6 5.32 6 6 6 C6.25394531 6.71027344 6.50789063 7.42054687 6.76953125 8.15234375 C7.11371094 9.07144531 7.45789063 9.99054688 7.8125 10.9375 C8.14894531 11.85402344 8.48539062 12.77054688 8.83203125 13.71484375 C9.83409094 16.3340424 9.83409094 16.3340424 13 17 C13.0825 18.03125 13.165 19.0625 13.25 20.125 C14.08499129 24.43912167 15.18291202 26.64994943 18 30 C22.21899067 32.7189051 26.03836296 33.5038363 31 34 C31.64450937 41.41185774 29.52656619 47.51118839 25.1640625 53.53515625 C17.33574955 62.75816864 8.04662624 65.2193456 -3.80493164 66.36914062 C-7.09566488 66.54903652 -10.3812887 66.68669384 -13.67602539 66.76342773 C-15.697157 66.81273559 -17.71613465 66.88846832 -19.73632812 66.96679688 C-27.11114434 67.18124446 -33.85651691 66.92361151 -41 65 C-41.18792114 64.04697998 -41.18792114 64.04697998 -41.37963867 63.07470703 C-41.8015765 60.82840066 -41.8015765 60.82840066 -43.92578125 59.8046875 C-44.71339844 59.49789062 -45.50101563 59.19109375 -46.3125 58.875 C-51 57 -51 57 -53.04296875 55.8828125 C-55.24987529 54.72586887 -55.24987529 54.72586887 -59 55 C-59 60.61 -59 66.22 -59 72 C-66.1172654 70.96206546 -73.06404791 69.90398685 -80 68 C-79.95875 66.783125 -79.9175 65.56625 -79.875 64.3125 C-79.86042218 61.54271344 -79.9842522 60.03797998 -81.0625 57.4375 C-82.45526434 53.81631271 -81.98565567 51.75781223 -81 48 C-77.8870786 41.32497726 -74.4269826 36.61345374 -68 33 C-67.44054687 32.62101562 -66.88109375 32.24203125 -66.3046875 31.8515625 C-60.83259943 28.51145679 -55.46729111 28.59686973 -49.18359375 28.34375 C-44.54768904 28.05962465 -40.13136035 27.08759411 -35.625 26 C-34.8812915 25.82146484 -34.13758301 25.64292969 -33.37133789 25.45898438 C-29.89898016 24.80354584 -29.89898016 24.80354584 -27 23 C-25.741875 22.938125 -24.48375 22.87625 -23.1875 22.8125 C-16.02059113 22.10040329 -9.32193864 18.63817769 -3.72265625 14.19140625 C-1.52437635 11.39495495 -1.20727579 9.25578104 -0.75 5.75 C-0.60046875 4.67234375 -0.4509375 3.5946875 -0.296875 2.484375 C-0.19890625 1.66453125 -0.1009375 0.8446875 0 0 Z " fill="#FEFEFE" transform="translate(276,67)"/>
<path d="M0 0 C1.1034375 0.5775 2.206875 1.155 3.34375 1.75 C4.24734253 2.21660034 4.24734253 2.21660034 5.16918945 2.69262695 C9.5357454 4.97420484 13.78306721 7.44479379 18.03125 9.9375 C23.78395759 13.2851208 29.49276465 15.77989842 35.84375 17.75 C34.28265351 20.87219299 31.67856878 21.0879464 28.46875 22.25 C24.91241841 23.54321149 21.99800362 24.64716425 18.84375 26.75 C6.24280115 25.83941071 -7.89020702 22.50018834 -19.15625 16.75 C-21.15625 13.75 -21.15625 13.75 -21.09375 10.375 C-19.6898495 4.94658472 -16.88192247 2.81477663 -12.21875 -0.0625 C-7.68588579 -1.82014123 -4.54010032 -1.79805953 0 0 Z " fill="#DD9E3D" transform="translate(160.15625,6.25)"/>
<path d="M0 0 C0.99 0.66 1.98 1.32 3 2 C1.04414675 3.00484204 -0.91476237 4.00373805 -2.875 5 C-3.96554688 5.556875 -5.05609375 6.11375 -6.1796875 6.6875 C-9 8 -9 8 -11 8 C-11 8.99 -11 9.98 -11 11 C-10.34773438 10.73445313 -9.69546875 10.46890625 -9.0234375 10.1953125 C-4.38732183 8.32172003 0.22830854 6.50684994 5 5 C4.34 6.32 3.68 7.64 3 9 C2.34 9 1.68 9 1 9 C-0.20628008 11.33214148 -1.1654738 13.49642139 -2 16 C1.20618794 14.99234093 2.9106452 14.09431896 5.25 11.625 C8.82247844 8.21490694 13.87764604 5 19 5 C20.03510133 8.79300829 20.5482913 12.08650797 20 16 C16.49549286 20.62296686 11.53719627 25.01729336 6 27 C-0.73694749 27.62461765 -7.23551628 25.96678006 -13.8125 24.625 C-15.52856445 24.29242188 -15.52856445 24.29242188 -17.27929688 23.953125 C-18.36919922 23.73398438 -19.45910156 23.51484375 -20.58203125 23.2890625 C-21.57436768 23.09006348 -22.5667041 22.89106445 -23.58911133 22.68603516 C-26 22 -26 22 -28 20 C-25.26846697 15.33363108 -22.1645349 12.27099099 -18.03125 8.80859375 C-15.48124825 6.53811143 -13.36003972 4.04071988 -11.2265625 1.3828125 C-8.15125388 -2.08425518 -4.10591074 -0.93500938 0 0 Z " fill="#C72A21" transform="translate(135,68)"/>
<path d="M0 0 C0.66 0 1.32 0 2 0 C2.66 4.95 3.32 9.9 4 15 C3.01 15 2.02 15 1 15 C0.7104798 20.0183501 0.99885467 22.08546261 4 26 C3.84741639 29.48594866 3.1618588 30.82301154 0.78515625 33.421875 C-0.11332031 34.19015625 -1.01179688 34.9584375 -1.9375 35.75 C-2.83339844 36.52859375 -3.72929688 37.3071875 -4.65234375 38.109375 C-9.10557368 41.69566999 -12.9779628 41.43981615 -18.578125 41.43359375 C-23.75833623 40.77719712 -27.12400809 38.36520228 -31 35 C-29.62845314 31.81580579 -28.13830017 30.02887404 -25.4375 27.875 C-22.78974334 25.79096366 -22.78974334 25.79096366 -21 23 C-20.34 23 -19.68 23 -19 23 C-18.73832031 22.42121094 -18.47664063 21.84242188 -18.20703125 21.24609375 C-16.92707261 18.86429369 -15.48643946 17.07683354 -13.6875 15.0625 C-12.75357422 14.01642578 -12.75357422 14.01642578 -11.80078125 12.94921875 C-9.59902505 10.56597288 -7.29410052 8.29410052 -5 6 C-4.09620164 4.90234344 -3.20041658 3.7980429 -2.3125 2.6875 C-1.549375 1.800625 -0.78625 0.91375 0 0 Z " fill="#FFFFFF" transform="translate(38,115)"/>
<path d="M0 0 C0.495 0.99 0.495 0.99 1 2 C3.18893073 2.39362058 3.18893073 2.39362058 5.75 2.5 C9.52625462 2.79755588 12.56742153 3.28371077 16 5 C4.61582676 14.15977206 -12.83664023 16.23152833 -27 17 C-28.10988281 17.0928125 -29.21976563 17.185625 -30.36328125 17.28125 C-38.16066749 17.68578366 -44.06399138 15.44340854 -51 12 C-35.64047334 1.76031556 -18.10431286 -0.09120561 0 0 Z " fill="#FEFEFE" transform="translate(145,149)"/>
<path d="M0 0 C6.13929569 0.36835774 8.81670353 1.71710123 13 6 C13.875 8.3125 13.875 8.3125 14 10 C11.03 9.505 11.03 9.505 8 9 C9.92391649 14.31411494 9.92391649 14.31411494 14 18 C13.67 19.32 13.34 20.64 13 22 C12.13375 21.195625 11.2675 20.39125 10.375 19.5625 C7.37123907 17.03075864 4.96796738 16.28342624 1 16 C0.67 16.99 0.34 17.98 0 19 C0.5775 19.2475 1.155 19.495 1.75 19.75 C4.41076851 21.22820473 6.13556544 22.58314039 8 25 C7.9375 27.625 7.9375 27.625 7 30 C3.25651771 32.49565486 0.32629874 32.38730674 -4 32 C-9.20784726 30.8542736 -12.24992478 28.66286417 -16 25 C-16.875 22.6875 -16.875 22.6875 -17 21 C-16.34 21 -15.68 21 -15 21 C-15.268125 20.443125 -15.53625 19.88625 -15.8125 19.3125 C-15.874375 18.549375 -15.93625 17.78625 -16 17 C-14.39393477 15.27485941 -12.71430561 13.61762537 -11 12 C-9.24876692 10.27208216 -7.49875302 8.54292776 -5.75 6.8125 C-4.87859375 5.95269531 -4.0071875 5.09289062 -3.109375 4.20703125 C-0.97005762 2.18568934 -0.97005762 2.18568934 0 0 Z " fill="#F7F7F7" transform="translate(224,143)"/>
<path d="M0 0 C1.57035446 2.35553168 2.62351988 4.27717024 3.69921875 6.84375 C7.8686186 16.6113357 12.09524898 25.75348951 18.69921875 34.1640625 C20 36 20 36 20 38 C11.4501199 36.52655128 5.20909304 34.35162448 0 27 C-1.1871698 24.5194686 -2.25301013 22.11347152 -3.25 19.5625 C-3.6521875 18.59860352 -3.6521875 18.59860352 -4.0625 17.61523438 C-5.65411047 13.61590705 -6.56360471 10.29442286 -6 6 C-4.29460353 3.53326582 -2.28342168 1.99799397 0 0 Z " fill="#C22920" transform="translate(156,90)"/>
<path d="M0 0 C2.625 0.375 2.625 0.375 4.4375 2.6875 C5.625 5.375 5.625 5.375 5.625 8.375 C4.635 8.87 4.635 8.87 3.625 9.375 C2.96727572 12.40434491 2.96727572 12.40434491 2.625 15.375 C3.945 15.375 5.265 15.375 6.625 15.375 C8.36532219 20.59596658 8.90566303 27.33831866 6.73046875 32.49609375 C5.625 34.125 5.625 34.125 3.625 36.375 C1.975 36.045 0.325 35.715 -1.375 35.375 C-4.65473462 24.29816043 -7.23635129 12.5658981 -3.375 1.375 C-2.375 0.375 -2.375 0.375 0 0 Z " fill="#000000" transform="translate(249.375,44.625)"/>
<path d="M0 0 C6.57937819 0.49345336 12.57224576 3.38149718 18 7 C18 8.32 18 9.64 18 11 C15.94326547 12.01180498 13.87934652 13.00901477 11.8125 14 C10.66394531 14.556875 9.51539063 15.11375 8.33203125 15.6875 C5.20909481 16.91763675 3.29713518 17.29804612 0 17 C-1.49341703 14.01316593 -1.13175178 11.25600226 -1.125 7.9375 C-1.12757813 6.66777344 -1.13015625 5.39804688 -1.1328125 4.08984375 C-1 1 -1 1 0 0 Z " fill="#C72A21" transform="translate(217,121)"/>
<path d="M0 0 C0.69029297 0.04833984 1.38058594 0.09667969 2.09179688 0.14648438 C6.12782181 0.44870804 10.08238308 0.9587462 14.0625 1.6875 C13.0725 2.0175 12.0825 2.3475 11.0625 2.6875 C11.5265625 3.80125 11.5265625 3.80125 12 4.9375 C12.8719925 7.19442176 13.53917007 9.3325153 14.0625 11.6875 C13.4025 11.6875 12.7425 11.6875 12.0625 11.6875 C11.44375 10.883125 10.825 10.07875 10.1875 9.25 C8.03709015 6.65685871 7.30855542 6.03529165 4.0625 5.6875 C4.3925 6.43 4.7225 7.1725 5.0625 7.9375 C6.0625 10.6875 6.0625 10.6875 6.0625 14.6875 C2.9375 15.1875 2.9375 15.1875 -0.9375 14.6875 C-2.71429561 12.81466139 -4.03348572 10.82400422 -5.44921875 8.66796875 C-7.48405585 5.9601934 -9.8155707 4.8768064 -12.9375 3.6875 C-12.9375 3.0275 -12.9375 2.3675 -12.9375 1.6875 C-8.55994592 -0.53967664 -4.76462624 -0.41143012 0 0 Z " fill="#F2F2F2" transform="translate(246.9375,136.3125)"/>
<path d="M0 0 C0.99 0 1.98 0 3 0 C2.67 2.31 2.34 4.62 2 7 C1.01 7 0.02 7 -1 7 C-1.04254356 5.00045254 -1.04080783 2.99958364 -1 1 C-0.67 0.67 -0.34 0.34 0 0 Z " fill="#FFFFFF" transform="translate(253,53)"/>
<path d="M0 0 C1.98 1.65 3.96 3.3 6 5 C5.67 6.32 5.34 7.64 5 9 C3.02 7.35 1.04 5.7 -1 4 C-0.67 2.68 -0.34 1.36 0 0 Z " fill="#D5D5D5" transform="translate(232,156)"/>
<path d="M0 0 C4 4.625 4 4.625 4 8 C3.34 8 2.68 8 2 8 C0.61061923 6.03852126 -0.7260411 4.03833424 -2 2 C-1.34 2 -0.68 2 0 2 C0 1.34 0 0.68 0 0 Z " fill="#AAAAAA" transform="translate(257,140)"/>
</svg>
